<svg xmlns="http://www.w3.org/2000/svg" xmlns:xlink="http://www.w3.org/1999/xlink" width="514" zoomAndPan="magnify" viewBox="0 0 385.5 267.749992" height="357" preserveAspectRatio="xMidYMid meet" version="1.0"><defs><g/><clipPath id="673db22bae"><path d="M 2 1 L 103 1 L 103 220 L 2 220 Z M 2 1 " clip-rule="nonzero"/></clipPath><clipPath id="58104f56c0"><path d="M 0.496094 1.644531 L 102.378906 0.765625 L 104.285156 221.507812 L 2.402344 222.390625 Z M 0.496094 1.644531 " clip-rule="nonzero"/></clipPath><clipPath id="1f89407197"><path d="M 0.496094 1.644531 L 102.378906 0.765625 L 104.285156 221.507812 L 2.402344 222.390625 Z M 0.496094 1.644531 " clip-rule="nonzero"/></clipPath><clipPath id="9219042e47"><path d="M 0.496094 1.644531 L 102.378906 0.765625 L 104.285156 221.507812 L 2.402344 222.390625 Z M 0.496094 1.644531 " clip-rule="nonzero"/></clipPath><clipPath id="9c692b10fa"><path d="M 9 23 L 96 23 L 96 213 L 9 213 Z M 9 23 " clip-rule="nonzero"/></clipPath><clipPath id="8de5e1bdd9"><path d="M 0.496094 1.644531 L 102.378906 0.765625 L 104.285156 221.507812 L 2.402344 222.390625 Z M 0.496094 1.644531 " clip-rule="nonzero"/></clipPath><clipPath id="fcd6c6dfd2"><path d="M 0.496094 1.644531 L 102.378906 0.765625 L 104.285156 221.507812 L 2.402344 222.390625 Z M 0.496094 1.644531 " clip-rule="nonzero"/></clipPath><clipPath id="729c0b979b"><path d="M 0.496094 1.644531 L 102.378906 0.765625 L 104.285156 221.507812 L 2.402344 222.390625 Z M 0.496094 1.644531 " clip-rule="nonzero"/></clipPath><clipPath id="f37312b44b"><path d="M 11 136 L 96 136 L 96 213 L 11 213 Z M 11 136 " clip-rule="nonzero"/></clipPath><clipPath id="a54b1e2384"><path d="M 0.496094 1.644531 L 102.378906 0.765625 L 104.285156 221.507812 L 2.402344 222.390625 Z M 0.496094 1.644531 " clip-rule="nonzero"/></clipPath><clipPath id="f109406198"><path d="M 0.496094 1.644531 L 102.378906 0.765625 L 104.285156 221.507812 L 2.402344 222.390625 Z M 0.496094 1.644531 " clip-rule="nonzero"/></clipPath><clipPath id="a08852e85c"><path d="M 0.496094 1.644531 L 102.378906 0.765625 L 104.285156 221.507812 L 2.402344 222.390625 Z M 0.496094 1.644531 " clip-rule="nonzero"/></clipPath><clipPath id="94245968d0"><path d="M 25 22 L 77 22 L 77 38 L 25 38 Z M 25 22 " clip-rule="nonzero"/></clipPath><clipPath id="198e68d37d"><path d="M 0.496094 1.644531 L 102.378906 0.765625 L 104.285156 221.507812 L 2.402344 222.390625 Z M 0.496094 1.644531 " clip-rule="nonzero"/></clipPath><clipPath id="e3cc65128b"><path d="M 0.496094 1.644531 L 102.378906 0.765625 L 104.285156 221.507812 L 2.402344 222.390625 Z M 0.496094 1.644531 " clip-rule="nonzero"/></clipPath><clipPath id="a4d40c36f2"><path d="M 0.496094 1.644531 L 102.378906 0.765625 L 104.285156 221.507812 L 2.402344 222.390625 Z M 0.496094 1.644531 " clip-rule="nonzero"/></clipPath><clipPath id="4638ae52ac"><path d="M 26 26 L 27 26 L 27 27 L 26 27 Z M 26 26 " clip-rule="nonzero"/></clipPath><clipPath id="00b6389c1f"><path d="M 0.496094 1.644531 L 102.378906 0.765625 L 104.285156 221.507812 L 2.402344 222.390625 Z M 0.496094 1.644531 " clip-rule="nonzero"/></clipPath><clipPath id="361c8edc2d"><path d="M 0.496094 1.644531 L 102.378906 0.765625 L 104.285156 221.507812 L 2.402344 222.390625 Z M 0.496094 1.644531 " clip-rule="nonzero"/></clipPath><clipPath id="75cd378825"><path d="M 0.496094 1.644531 L 102.378906 0.765625 L 104.285156 221.507812 L 2.402344 222.390625 Z M 0.496094 1.644531 " clip-rule="nonzero"/></clipPath><clipPath id="9b1c5e484d"><path d="M 49 25 L 53 25 L 53 27 L 49 27 Z M 49 25 " clip-rule="nonzero"/></clipPath><clipPath id="f1be1a40b6"><path d="M 0.496094 1.644531 L 102.378906 0.765625 L 104.285156 221.507812 L 2.402344 222.390625 Z M 0.496094 1.644531 " clip-rule="nonzero"/></clipPath><clipPath id="9d4ad1f820"><path d="M 0.496094 1.644531 L 102.378906 0.765625 L 104.285156 221.507812 L 2.402344 222.390625 Z M 0.496094 1.644531 " clip-rule="nonzero"/></clipPath><clipPath id="87ff54f621"><path d="M 0.496094 1.644531 L 102.378906 0.765625 L 104.285156 221.507812 L 2.402344 222.390625 Z M 0.496094 1.644531 " clip-rule="nonzero"/></clipPath><clipPath id="709c9c920b"><path d="M 40 26 L 42 26 L 42 28 L 40 28 Z M 40 26 " clip-rule="nonzero"/></clipPath><clipPath id="4cd58e12cd"><path d="M 0.496094 1.644531 L 102.378906 0.765625 L 104.285156 221.507812 L 2.402344 222.390625 Z M 0.496094 1.644531 " clip-rule="nonzero"/></clipPath><clipPath id="a050fb7278"><path d="M 0.496094 1.644531 L 102.378906 0.765625 L 104.285156 221.507812 L 2.402344 222.390625 Z M 0.496094 1.644531 " clip-rule="nonzero"/></clipPath><clipPath id="693ce07a56"><path d="M 0.496094 1.644531 L 102.378906 0.765625 L 104.285156 221.507812 L 2.402344 222.390625 Z M 0.496094 1.644531 " clip-rule="nonzero"/></clipPath><clipPath id="99c2151dc6"><path d="M 42 27 L 44 27 L 44 28 L 42 28 Z M 42 27 " clip-rule="nonzero"/></clipPath><clipPath id="b917cc6469"><path d="M 0.496094 1.644531 L 102.378906 0.765625 L 104.285156 221.507812 L 2.402344 222.390625 Z M 0.496094 1.644531 " clip-rule="nonzero"/></clipPath><clipPath id="6398ecc329"><path d="M 0.496094 1.644531 L 102.378906 0.765625 L 104.285156 221.507812 L 2.402344 222.390625 Z M 0.496094 1.644531 " clip-rule="nonzero"/></clipPath><clipPath id="792de98c49"><path d="M 0.496094 1.644531 L 102.378906 0.765625 L 104.285156 221.507812 L 2.402344 222.390625 Z M 0.496094 1.644531 " clip-rule="nonzero"/></clipPath><clipPath id="ce65f1249a"><path d="M 15 78 L 81 78 L 81 90 L 15 90 Z M 15 78 " clip-rule="nonzero"/></clipPath><clipPath id="891ee159bf"><path d="M 0.496094 1.644531 L 102.378906 0.765625 L 104.285156 221.507812 L 2.402344 222.390625 Z M 0.496094 1.644531 " clip-rule="nonzero"/></clipPath><clipPath id="64c7cf1340"><path d="M 0.496094 1.644531 L 102.378906 0.765625 L 104.285156 221.507812 L 2.402344 222.390625 Z M 0.496094 1.644531 " clip-rule="nonzero"/></clipPath><clipPath id="4925a8b82e"><path d="M 0.496094 1.644531 L 102.378906 0.765625 L 104.285156 221.507812 L 2.402344 222.390625 Z M 0.496094 1.644531 " clip-rule="nonzero"/></clipPath><clipPath id="8790609d1b"><path d="M 86 78 L 91 78 L 91 81 L 86 81 Z M 86 78 " clip-rule="nonzero"/></clipPath><clipPath id="979198095a"><path d="M 0.496094 1.644531 L 102.378906 0.765625 L 104.285156 221.507812 L 2.402344 222.390625 Z M 0.496094 1.644531 " clip-rule="nonzero"/></clipPath><clipPath id="2291133d9c"><path d="M 0.496094 1.644531 L 102.378906 0.765625 L 104.285156 221.507812 L 2.402344 222.390625 Z M 0.496094 1.644531 " clip-rule="nonzero"/></clipPath><clipPath id="cd5fe031cd"><path d="M 0.496094 1.644531 L 102.378906 0.765625 L 104.285156 221.507812 L 2.402344 222.390625 Z M 0.496094 1.644531 " clip-rule="nonzero"/></clipPath><clipPath id="f8a2dcdab4"><path d="M 27 213 L 77 213 L 77 219 L 27 219 Z M 27 213 " clip-rule="nonzero"/></clipPath><clipPath id="19e5ce3300"><path d="M 0.496094 1.644531 L 102.378906 0.765625 L 104.285156 221.507812 L 2.402344 222.390625 Z M 0.496094 1.644531 " clip-rule="nonzero"/></clipPath><clipPath id="0fed1d08b2"><path d="M 0.496094 1.644531 L 102.378906 0.765625 L 104.285156 221.507812 L 2.402344 222.390625 Z M 0.496094 1.644531 " clip-rule="nonzero"/></clipPath><clipPath id="3319dc626a"><path d="M 0.496094 1.644531 L 102.378906 0.765625 L 104.285156 221.507812 L 2.402344 222.390625 Z M 0.496094 1.644531 " clip-rule="nonzero"/></clipPath><clipPath id="8ba0e4c8cc"><path d="M 4 69 L 11 69 L 11 85 L 4 85 Z M 4 69 " clip-rule="nonzero"/></clipPath><clipPath id="ec533a0bd9"><path d="M 0.496094 1.644531 L 102.378906 0.765625 L 104.285156 221.507812 L 2.402344 222.390625 Z M 0.496094 1.644531 " clip-rule="nonzero"/></clipPath><clipPath id="b0ceca705a"><path d="M 0.496094 1.644531 L 102.378906 0.765625 L 104.285156 221.507812 L 2.402344 222.390625 Z M 0.496094 1.644531 " clip-rule="nonzero"/></clipPath><clipPath id="97af883f92"><path d="M 0.496094 1.644531 L 102.378906 0.765625 L 104.285156 221.507812 L 2.402344 222.390625 Z M 0.496094 1.644531 " clip-rule="nonzero"/></clipPath><clipPath id="f81a85d9ff"><path d="M 5 91 L 7 91 L 7 96 L 5 96 Z M 5 91 " clip-rule="nonzero"/></clipPath><clipPath id="2fc876f61d"><path d="M 0.496094 1.644531 L 102.378906 0.765625 L 104.285156 221.507812 L 2.402344 222.390625 Z M 0.496094 1.644531 " clip-rule="nonzero"/></clipPath><clipPath id="77eb87dcd1"><path d="M 0.496094 1.644531 L 102.378906 0.765625 L 104.285156 221.507812 L 2.402344 222.390625 Z M 0.496094 1.644531 " clip-rule="nonzero"/></clipPath><clipPath id="0acc175a45"><path d="M 0.496094 1.644531 L 102.378906 0.765625 L 104.285156 221.507812 L 2.402344 222.390625 Z M 0.496094 1.644531 " clip-rule="nonzero"/></clipPath><clipPath id="83ad7e3325"><path d="M 67 52 L 77 52 L 77 71 L 67 71 Z M 67 52 " clip-rule="nonzero"/></clipPath><clipPath id="f7dc072197"><path d="M 0.496094 1.644531 L 102.378906 0.765625 L 104.285156 221.507812 L 2.402344 222.390625 Z M 0.496094 1.644531 " clip-rule="nonzero"/></clipPath><clipPath id="e523ee3a3b"><path d="M 0.496094 1.644531 L 102.378906 0.765625 L 104.285156 221.507812 L 2.402344 222.390625 Z M 0.496094 1.644531 " clip-rule="nonzero"/></clipPath><clipPath id="03046b4bd5"><path d="M 0.496094 1.644531 L 102.378906 0.765625 L 104.285156 221.507812 L 2.402344 222.390625 Z M 0.496094 1.644531 " clip-rule="nonzero"/></clipPath><clipPath id="0da66ea34e"><path d="M 78 118 L 83 118 L 83 192 L 78 192 Z M 78 118 " clip-rule="nonzero"/></clipPath><clipPath id="b7b21497ba"><path d="M 0.496094 1.644531 L 102.378906 0.765625 L 104.285156 221.507812 L 2.402344 222.390625 Z M 0.496094 1.644531 " clip-rule="nonzero"/></clipPath><clipPath id="c53e6f9bcf"><path d="M 0.496094 1.644531 L 102.378906 0.765625 L 104.285156 221.507812 L 2.402344 222.390625 Z M 0.496094 1.644531 " clip-rule="nonzero"/></clipPath><clipPath id="631919f60c"><path d="M 0.496094 1.644531 L 102.378906 0.765625 L 104.285156 221.507812 L 2.402344 222.390625 Z M 0.496094 1.644531 " clip-rule="nonzero"/></clipPath><clipPath id="2e911acfdd"><path d="M 25 148 L 32 148 L 32 155 L 25 155 Z M 25 148 " clip-rule="nonzero"/></clipPath><clipPath id="5c832fc466"><path d="M 0.496094 1.644531 L 102.378906 0.765625 L 104.285156 221.507812 L 2.402344 222.390625 Z M 0.496094 1.644531 " clip-rule="nonzero"/></clipPath><clipPath id="48cee36fec"><path d="M 0.496094 1.644531 L 102.378906 0.765625 L 104.285156 221.507812 L 2.402344 222.390625 Z M 0.496094 1.644531 " clip-rule="nonzero"/></clipPath><clipPath id="18cd76fd3a"><path d="M 0.496094 1.644531 L 102.378906 0.765625 L 104.285156 221.507812 L 2.402344 222.390625 Z M 0.496094 1.644531 " clip-rule="nonzero"/></clipPath><clipPath id="52e6b00f2d"><path d="M 54 128 L 58 128 L 58 132 L 54 132 Z M 54 128 " clip-rule="nonzero"/></clipPath><clipPath id="102b90f11f"><path d="M 0.496094 1.644531 L 102.378906 0.765625 L 104.285156 221.507812 L 2.402344 222.390625 Z M 0.496094 1.644531 " clip-rule="nonzero"/></clipPath><clipPath id="65cca1c073"><path d="M 0.496094 1.644531 L 102.378906 0.765625 L 104.285156 221.507812 L 2.402344 222.390625 Z M 0.496094 1.644531 " clip-rule="nonzero"/></clipPath><clipPath id="4f0dd9507f"><path d="M 0.496094 1.644531 L 102.378906 0.765625 L 104.285156 221.507812 L 2.402344 222.390625 Z M 0.496094 1.644531 " clip-rule="nonzero"/></clipPath><clipPath id="998f79f7a7"><path d="M 65 139 L 71 139 L 71 145 L 65 145 Z M 65 139 " clip-rule="nonzero"/></clipPath><clipPath id="ebad09862a"><path d="M 0.496094 1.644531 L 102.378906 0.765625 L 104.285156 221.507812 L 2.402344 222.390625 Z M 0.496094 1.644531 " clip-rule="nonzero"/></clipPath><clipPath id="166c88d27b"><path d="M 0.496094 1.644531 L 102.378906 0.765625 L 104.285156 221.507812 L 2.402344 222.390625 Z M 0.496094 1.644531 " clip-rule="nonzero"/></clipPath><clipPath id="25b84c307e"><path d="M 0.496094 1.644531 L 102.378906 0.765625 L 104.285156 221.507812 L 2.402344 222.390625 Z M 0.496094 1.644531 " clip-rule="nonzero"/></clipPath><clipPath id="1f64201985"><path d="M 28 163 L 35 163 L 35 169 L 28 169 Z M 28 163 " clip-rule="nonzero"/></clipPath><clipPath id="07fee83b2f"><path d="M 0.496094 1.644531 L 102.378906 0.765625 L 104.285156 221.507812 L 2.402344 222.390625 Z M 0.496094 1.644531 " clip-rule="nonzero"/></clipPath><clipPath id="21df92db10"><path d="M 0.496094 1.644531 L 102.378906 0.765625 L 104.285156 221.507812 L 2.402344 222.390625 Z M 0.496094 1.644531 " clip-rule="nonzero"/></clipPath><clipPath id="71c4c1faa4"><path d="M 0.496094 1.644531 L 102.378906 0.765625 L 104.285156 221.507812 L 2.402344 222.390625 Z M 0.496094 1.644531 " clip-rule="nonzero"/></clipPath><clipPath id="52afc3ba61"><path d="M 39 39 L 42 39 L 42 42 L 39 42 Z M 39 39 " clip-rule="nonzero"/></clipPath><clipPath id="6efb9dc008"><path d="M 0.496094 1.644531 L 102.378906 0.765625 L 104.285156 221.507812 L 2.402344 222.390625 Z M 0.496094 1.644531 " clip-rule="nonzero"/></clipPath><clipPath id="bed584ed37"><path d="M 0.496094 1.644531 L 102.378906 0.765625 L 104.285156 221.507812 L 2.402344 222.390625 Z M 0.496094 1.644531 " clip-rule="nonzero"/></clipPath><clipPath id="ce065bc39f"><path d="M 0.496094 1.644531 L 102.378906 0.765625 L 104.285156 221.507812 L 2.402344 222.390625 Z M 0.496094 1.644531 " clip-rule="nonzero"/></clipPath><clipPath id="85d6bfa2ec"><path d="M 43 42 L 47 42 L 47 45 L 43 45 Z M 43 42 " clip-rule="nonzero"/></clipPath><clipPath id="79b8aab8e2"><path d="M 0.496094 1.644531 L 102.378906 0.765625 L 104.285156 221.507812 L 2.402344 222.390625 Z M 0.496094 1.644531 " clip-rule="nonzero"/></clipPath><clipPath id="3285b25cea"><path d="M 0.496094 1.644531 L 102.378906 0.765625 L 104.285156 221.507812 L 2.402344 222.390625 Z M 0.496094 1.644531 " clip-rule="nonzero"/></clipPath><clipPath id="3509dc366f"><path d="M 0.496094 1.644531 L 102.378906 0.765625 L 104.285156 221.507812 L 2.402344 222.390625 Z M 0.496094 1.644531 " clip-rule="nonzero"/></clipPath><clipPath id="a29b081cf5"><path d="M 67 38 L 69 38 L 69 41 L 67 41 Z M 67 38 " clip-rule="nonzero"/></clipPath><clipPath id="3691cc1b03"><path d="M 0.496094 1.644531 L 102.378906 0.765625 L 104.285156 221.507812 L 2.402344 222.390625 Z M 0.496094 1.644531 " clip-rule="nonzero"/></clipPath><clipPath id="3539344892"><path d="M 0.496094 1.644531 L 102.378906 0.765625 L 104.285156 221.507812 L 2.402344 222.390625 Z M 0.496094 1.644531 " clip-rule="nonzero"/></clipPath><clipPath id="927a66c942"><path d="M 0.496094 1.644531 L 102.378906 0.765625 L 104.285156 221.507812 L 2.402344 222.390625 Z M 0.496094 1.644531 " clip-rule="nonzero"/></clipPath><clipPath id="bb109b9f43"><path d="M 32 80 L 35 80 L 35 83 L 32 83 Z M 32 80 " clip-rule="nonzero"/></clipPath><clipPath id="b1b069f39d"><path d="M 0.496094 1.644531 L 102.378906 0.765625 L 104.285156 221.507812 L 2.402344 222.390625 Z M 0.496094 1.644531 " clip-rule="nonzero"/></clipPath><clipPath id="aa0d813279"><path d="M 0.496094 1.644531 L 102.378906 0.765625 L 104.285156 221.507812 L 2.402344 222.390625 Z M 0.496094 1.644531 " clip-rule="nonzero"/></clipPath><clipPath id="512ee59a1c"><path d="M 0.496094 1.644531 L 102.378906 0.765625 L 104.285156 221.507812 L 2.402344 222.390625 Z M 0.496094 1.644531 " clip-rule="nonzero"/></clipPath><clipPath id="90425ed593"><path d="M 68 134 L 71 134 L 71 136 L 68 136 Z M 68 134 " clip-rule="nonzero"/></clipPath><clipPath id="a01d8d1219"><path d="M 0.496094 1.644531 L 102.378906 0.765625 L 104.285156 221.507812 L 2.402344 222.390625 Z M 0.496094 1.644531 " clip-rule="nonzero"/></clipPath><clipPath id="2b54dc7ebe"><path d="M 0.496094 1.644531 L 102.378906 0.765625 L 104.285156 221.507812 L 2.402344 222.390625 Z M 0.496094 1.644531 " clip-rule="nonzero"/></clipPath><clipPath id="29a3443ed2"><path d="M 0.496094 1.644531 L 102.378906 0.765625 L 104.285156 221.507812 L 2.402344 222.390625 Z M 0.496094 1.644531 " clip-rule="nonzero"/></clipPath><clipPath id="c8a1923af0"><path d="M 33 140 L 36 140 L 36 143 L 33 143 Z M 33 140 " clip-rule="nonzero"/></clipPath><clipPath id="06175c413f"><path d="M 0.496094 1.644531 L 102.378906 0.765625 L 104.285156 221.507812 L 2.402344 222.390625 Z M 0.496094 1.644531 " clip-rule="nonzero"/></clipPath><clipPath id="6d579f4d53"><path d="M 0.496094 1.644531 L 102.378906 0.765625 L 104.285156 221.507812 L 2.402344 222.390625 Z M 0.496094 1.644531 " clip-rule="nonzero"/></clipPath><clipPath id="4041f55c8c"><path d="M 0.496094 1.644531 L 102.378906 0.765625 L 104.285156 221.507812 L 2.402344 222.390625 Z M 0.496094 1.644531 " clip-rule="nonzero"/></clipPath><clipPath id="89893fd062"><path d="M 64 181 L 67 181 L 67 185 L 64 185 Z M 64 181 " clip-rule="nonzero"/></clipPath><clipPath id="6054fe24b5"><path d="M 0.496094 1.644531 L 102.378906 0.765625 L 104.285156 221.507812 L 2.402344 222.390625 Z M 0.496094 1.644531 " clip-rule="nonzero"/></clipPath><clipPath id="63d9f2d85f"><path d="M 0.496094 1.644531 L 102.378906 0.765625 L 104.285156 221.507812 L 2.402344 222.390625 Z M 0.496094 1.644531 " clip-rule="nonzero"/></clipPath><clipPath id="5e203ec413"><path d="M 0.496094 1.644531 L 102.378906 0.765625 L 104.285156 221.507812 L 2.402344 222.390625 Z M 0.496094 1.644531 " clip-rule="nonzero"/></clipPath><clipPath id="4bb0f668bc"><path d="M 27 6 L 79 6 L 79 18 L 27 18 Z M 27 6 " clip-rule="nonzero"/></clipPath><clipPath id="38a03be70c"><path d="M 0.496094 1.644531 L 102.378906 0.765625 L 104.285156 221.507812 L 2.402344 222.390625 Z M 0.496094 1.644531 " clip-rule="nonzero"/></clipPath><clipPath id="a13ff37c99"><path d="M 0.496094 1.644531 L 102.378906 0.765625 L 104.285156 221.507812 L 2.402344 222.390625 Z M 0.496094 1.644531 " clip-rule="nonzero"/></clipPath><clipPath id="6c6cfc363f"><path d="M 0.496094 1.644531 L 102.378906 0.765625 L 104.285156 221.507812 L 2.402344 222.390625 Z M 0.496094 1.644531 " clip-rule="nonzero"/></clipPath><clipPath id="664e1c9d5c"><path d="M 20 9 L 26 9 L 26 17 L 20 17 Z M 20 9 " clip-rule="nonzero"/></clipPath><clipPath id="a5ab41c53f"><path d="M 0.496094 1.644531 L 102.378906 0.765625 L 104.285156 221.507812 L 2.402344 222.390625 Z M 0.496094 1.644531 " clip-rule="nonzero"/></clipPath><clipPath id="a138a95001"><path d="M 0.496094 1.644531 L 102.378906 0.765625 L 104.285156 221.507812 L 2.402344 222.390625 Z M 0.496094 1.644531 " clip-rule="nonzero"/></clipPath><clipPath id="77759a4595"><path d="M 0.496094 1.644531 L 102.378906 0.765625 L 104.285156 221.507812 L 2.402344 222.390625 Z M 0.496094 1.644531 " clip-rule="nonzero"/></clipPath><clipPath id="203eabb5cc"><path d="M 73 16 L 81 16 L 81 22 L 73 22 Z M 73 16 " clip-rule="nonzero"/></clipPath><clipPath id="957563f96a"><path d="M 0.496094 1.644531 L 102.378906 0.765625 L 104.285156 221.507812 L 2.402344 222.390625 Z M 0.496094 1.644531 " clip-rule="nonzero"/></clipPath><clipPath id="660e73de4f"><path d="M 0.496094 1.644531 L 102.378906 0.765625 L 104.285156 221.507812 L 2.402344 222.390625 Z M 0.496094 1.644531 " clip-rule="nonzero"/></clipPath><clipPath id="8565fd5e3d"><path d="M 0.496094 1.644531 L 102.378906 0.765625 L 104.285156 221.507812 L 2.402344 222.390625 Z M 0.496094 1.644531 " clip-rule="nonzero"/></clipPath></defs><g clip-path="url(#673db22bae)"><g clip-path="url(#58104f56c0)"><g clip-path="url(#1f89407197)"><g clip-path="url(#9219042e47)"><path fill="#f7ece4" d="M 53.320312 219.242188 C 66.402344 218.242188 85.230469 221.644531 96.464844 210.972656 C 100.253906 206.636719 102.699219 200.6875 102.097656 193.234375 C 100.996094 179.640625 100.492188 166.632812 100.011719 154.183594 C 98.855469 116.058594 103.113281 86.621094 101.164062 77.144531 C 99.21875 67.664062 90.3125 62.726562 86.078125 55.632812 C 81.84375 48.539062 84.875 20.863281 84.507812 15.875 C 83.957031 13.835938 83.050781 9.792969 79.300781 7.355469 C 75.546875 4.921875 66.128906 1.132812 51.433594 1.257812 C 36.738281 1.386719 27.386719 5.335938 23.675781 7.835938 C 19.96875 10.335938 19.132812 14.394531 18.617188 16.445312 C 18.335938 21.4375 21.847656 49.058594 17.734375 56.222656 C 13.621094 63.390625 4.804688 68.480469 3.019531 77.992188 C 1.238281 87.503906 6.003906 116.863281 5.507812 155 C 5.242188 167.457031 4.960938 180.46875 4.097656 194.082031 C 3.625 201.542969 6.167969 207.449219 10.035156 211.71875 C 21.457031 222.195312 40.21875 218.46875 53.320312 219.242188 Z M 53.320312 219.242188 " fill-opacity="0.2" fill-rule="nonzero"/></g></g></g></g><g clip-path="url(#9c692b10fa)"><g clip-path="url(#8de5e1bdd9)"><g clip-path="url(#fcd6c6dfd2)"><g clip-path="url(#729c0b979b)"><path fill="#feab41" d="M 53.257812 212.097656 C 51.582031 212.011719 49.703125 211.980469 47.390625 212.003906 C 45.972656 212.015625 44.519531 212.042969 43.039062 212.074219 C 41.566406 212.105469 40.070312 212.136719 38.558594 212.148438 C 28.320312 212.238281 20.398438 211.335938 15.128906 206.695312 C 12.246094 203.382812 10.9375 199.292969 11.242188 194.53125 C 12.113281 180.769531 12.394531 167.746094 12.664062 155.152344 L 12.664062 155.09375 C 12.929688 134.566406 11.675781 116.246094 10.757812 102.871094 C 10.023438 92.140625 9.386719 82.875 10.058594 79.300781 C 10.796875 75.34375 13.695312 72.191406 17.050781 68.535156 C 19.492188 65.878906 22.015625 63.128906 23.949219 59.761719 C 27.722656 53.183594 27.296875 54.59375 26.257812 38.921875 C 26.089844 36.417969 25.902344 33.628906 25.886719 32.304688 C 26.304688 30.667969 28.21875 29.199219 29.273438 28.488281 C 32.148438 26.550781 38.9375 23.414062 51.625 23.304688 C 64.3125 23.195312 72.582031 27.09375 75.488281 28.980469 C 76.558594 29.675781 77.070312 30.230469 77.519531 31.859375 C 77.519531 33.183594 77.382812 35.976562 77.261719 38.484375 C 76.492188 54.167969 76.039062 52.761719 79.929688 59.277344 C 81.917969 62.609375 84.492188 65.316406 86.976562 67.933594 C 90.394531 71.527344 93.347656 74.628906 94.15625 78.574219 C 94.886719 82.132812 94.410156 91.410156 93.863281 102.152344 C 93.175781 115.542969 92.234375 133.878906 92.859375 154.398438 L 92.859375 154.457031 C 93.347656 167.054688 93.851562 180.066406 94.964844 193.808594 C 95.347656 198.5625 94.109375 202.671875 91.285156 206.035156 C 86.097656 210.765625 78.191406 211.804688 67.953125 211.894531 C 66.441406 211.90625 64.945312 211.902344 63.472656 211.898438 C 61.992188 211.890625 60.539062 211.886719 59.117188 211.898438 C 56.808594 211.921875 54.929688 211.984375 53.257812 212.097656 Z M 53.257812 212.097656 " fill-opacity="1" fill-rule="nonzero"/></g></g></g></g><g clip-path="url(#f37312b44b)"><g clip-path="url(#a54b1e2384)"><g clip-path="url(#f109406198)"><g clip-path="url(#a08852e85c)"><path fill="#f68e5d" d="M 93.132812 161.355469 C 90.546875 161.636719 87.972656 161.757812 85.453125 160.796875 C 81.597656 159.328125 80.773438 155.726562 78.660156 152.625 C 77.269531 150.585938 75.199219 149.441406 72.710938 149.285156 C 70.816406 149.164062 68.917969 149.714844 67.03125 149.523438 C 64.117188 149.230469 61.863281 147.015625 60.339844 144.648438 C 58.714844 142.121094 57.714844 138.601562 54.882812 137.101562 C 50.851562 134.960938 45.925781 136.78125 42.660156 139.527344 C 41.050781 140.882812 39.371094 142.5 38.457031 144.421875 C 37.589844 146.238281 37.285156 148.160156 36.917969 150.121094 C 36.414062 152.785156 35.351562 156.792969 32.707031 158.1875 C 30.523438 159.339844 27.804688 158.511719 25.6875 159.953125 C 23.714844 161.296875 22.886719 165.703125 19.8125 165.382812 C 17.910156 165.183594 16.539062 164.324219 14.597656 165.085938 C 13.652344 165.457031 12.910156 165.902344 12.402344 166.519531 C 12.171875 175.566406 11.851562 184.863281 11.238281 194.53125 C 10.9375 199.292969 12.246094 203.382812 15.128906 206.691406 C 20.398438 211.335938 28.320312 212.238281 38.558594 212.148438 C 40.070312 212.136719 41.566406 212.105469 43.039062 212.074219 C 44.515625 212.042969 45.972656 212.015625 47.390625 212 C 49.699219 211.980469 51.582031 212.011719 53.257812 212.097656 C 54.929688 211.984375 56.808594 211.921875 59.117188 211.902344 C 60.535156 211.886719 61.992188 211.890625 63.472656 211.898438 C 64.945312 211.902344 66.441406 211.90625 67.949219 211.894531 C 78.191406 211.804688 86.09375 210.769531 91.285156 206.035156 C 94.109375 202.675781 95.347656 198.5625 94.964844 193.808594 C 94.054688 182.558594 93.554688 171.800781 93.132812 161.355469 Z M 93.132812 161.355469 " fill-opacity="1" fill-rule="nonzero"/></g></g></g></g><g clip-path="url(#94245968d0)"><g clip-path="url(#198e68d37d)"><g clip-path="url(#e3cc65128b)"><g clip-path="url(#a4d40c36f2)"><path fill="#f7ece4" d="M 76.742188 29.960938 C 76.324219 27.585938 75.523438 27.199219 73.132812 26.425781 C 69.941406 25.265625 66.753906 24.5 63.175781 24.136719 C 59.59375 23.769531 55.613281 23.011719 51.632812 22.648438 C 46.460938 22.296875 42.101562 23.523438 36.945312 25.152344 C 34.160156 26.035156 30.492188 26.09375 28.007812 27.652344 C 27.292969 28.097656 26.660156 28.808594 26.277344 29.617188 C 25.980469 30.246094 25.839844 30.933594 25.929688 31.609375 C 26.238281 33.855469 28.796875 34.359375 30.667969 34.714844 C 34.253906 35.875 37.839844 36.636719 41.816406 36.601562 C 48.96875 36.539062 57.332031 38.050781 64.472656 36.40625 C 66.058594 35.996094 67.640625 35.1875 69.625 34.777344 C 71.214844 34.761719 73.207031 35.140625 75.183594 33.933594 C 76.769531 33.128906 77.160156 32.332031 76.742188 29.960938 Z M 73.140625 31.574219 C 69.789062 34.167969 65.039062 32.578125 61.214844 33.496094 C 59.515625 33.898438 57.628906 34.75 55.84375 34.460938 C 53.746094 34.121094 52.164062 32.9375 49.957031 33.621094 C 48.375 34.113281 46.78125 34.621094 45.15625 33.972656 C 43.941406 33.488281 42.757812 32.742188 41.402344 32.851562 C 39.496094 33.003906 37.605469 33.328125 35.695312 33.457031 C 34.285156 33.554688 32.84375 33.65625 31.441406 33.417969 C 30.433594 33.25 28.207031 32.601562 27.898438 31.410156 C 27.738281 30.800781 28.15625 30.265625 28.617188 29.914062 C 29.875 28.960938 31.742188 28.566406 33.257812 28.265625 C 33.96875 28.125 34.6875 28 35.398438 27.851562 C 37.394531 27.441406 39.25 26.230469 41.320312 26.277344 C 42.25 26.300781 43.117188 26.722656 44.015625 26.910156 C 45.5625 27.226562 46.691406 26.703125 48.019531 25.996094 C 49.585938 25.164062 51.082031 24.75 52.824219 25.339844 C 53.851562 25.6875 55.074219 26.371094 56.1875 26.324219 C 57.359375 26.277344 58.503906 25.96875 59.675781 25.929688 C 61.75 25.859375 63.425781 26.863281 65.386719 27.328125 C 67.179688 27.753906 68.894531 27.371094 70.699219 27.523438 C 72.097656 27.644531 73.195312 28.039062 73.863281 29.351562 C 74.261719 30.140625 73.777344 31.082031 73.140625 31.574219 Z M 73.140625 31.574219 " fill-opacity="1" fill-rule="nonzero"/></g></g></g></g><g clip-path="url(#4638ae52ac)"><g clip-path="url(#00b6389c1f)"><g clip-path="url(#361c8edc2d)"><g clip-path="url(#75cd378825)"><path fill="#f7ece4" d="M 26.574219 26.847656 C 26.539062 26.847656 26.539062 26.910156 26.578125 26.910156 C 26.613281 26.90625 26.613281 26.847656 26.574219 26.847656 Z M 26.574219 26.847656 " fill-opacity="1" fill-rule="nonzero"/></g></g></g></g><g clip-path="url(#9b1c5e484d)"><g clip-path="url(#f1be1a40b6)"><g clip-path="url(#9d4ad1f820)"><g clip-path="url(#87ff54f621)"><path fill="#f7ece4" d="M 51.996094 26.007812 C 51.6875 25.648438 50.851562 25.710938 50.445312 25.8125 C 50.234375 25.867188 49.910156 26 49.871094 26.253906 C 49.828125 26.550781 50.308594 26.863281 50.558594 26.917969 C 50.796875 26.96875 51.058594 26.957031 51.296875 26.925781 C 51.542969 26.898438 51.777344 26.835938 51.972656 26.671875 C 52.167969 26.503906 52.152344 26.191406 51.996094 26.007812 Z M 51.996094 26.007812 " fill-opacity="1" fill-rule="nonzero"/></g></g></g></g><g clip-path="url(#709c9c920b)"><g clip-path="url(#4cd58e12cd)"><g clip-path="url(#a050fb7278)"><g clip-path="url(#693ce07a56)"><path fill="#f7ece4" d="M 41.660156 27.089844 C 41.507812 26.832031 41.207031 26.730469 40.917969 26.75 C 40.71875 26.761719 40.28125 26.949219 40.351562 27.210938 C 40.390625 27.355469 40.617188 27.453125 40.738281 27.507812 C 40.933594 27.589844 41.894531 27.480469 41.660156 27.089844 Z M 41.660156 27.089844 " fill-opacity="1" fill-rule="nonzero"/></g></g></g></g><g clip-path="url(#99c2151dc6)"><g clip-path="url(#b917cc6469)"><g clip-path="url(#6398ecc329)"><g clip-path="url(#792de98c49)"><path fill="#f7ece4" d="M 43.640625 27.726562 C 43.546875 27.566406 43.363281 27.503906 43.1875 27.515625 C 43.066406 27.519531 42.796875 27.636719 42.839844 27.796875 C 42.863281 27.886719 43 27.945312 43.078125 27.980469 C 43.195312 28.03125 43.785156 27.964844 43.640625 27.726562 Z M 43.640625 27.726562 " fill-opacity="1" fill-rule="nonzero"/></g></g></g></g><g clip-path="url(#ce65f1249a)"><g clip-path="url(#891ee159bf)"><g clip-path="url(#64c7cf1340)"><g clip-path="url(#4925a8b82e)"><path fill="#f7ece4" d="M 15.972656 78.640625 C 20.058594 86.828125 32.050781 87.949219 40.054688 88.671875 C 45.859375 89.195312 51.726562 89.65625 57.554688 89.445312 C 65.128906 89.171875 72.648438 86.863281 79.789062 84.515625 C 80.675781 84.222656 80.292969 82.847656 79.390625 83.121094 C 72.566406 85.1875 65.777344 87.34375 58.625 87.933594 C 53.160156 88.382812 47.609375 87.804688 42.152344 87.4375 C 33.164062 86.832031 22.511719 85.988281 16.703125 78.203125 C 16.378906 77.765625 15.722656 78.144531 15.972656 78.640625 Z M 15.972656 78.640625 " fill-opacity="1" fill-rule="nonzero"/></g></g></g></g><g clip-path="url(#8790609d1b)"><g clip-path="url(#979198095a)"><g clip-path="url(#2291133d9c)"><g clip-path="url(#cd5fe031cd)"><path fill="#f7ece4" d="M 87.246094 80.648438 C 88.238281 80.273438 89.84375 79.871094 90.332031 78.835938 C 90.488281 78.5 90.296875 78.042969 89.878906 78.0625 C 89.210938 78.097656 88.6875 78.542969 88.144531 78.886719 C 87.707031 79.164062 87.300781 79.488281 86.867188 79.773438 C 86.429688 80.058594 86.710938 80.851562 87.246094 80.648438 Z M 87.246094 80.648438 " fill-opacity="1" fill-rule="nonzero"/></g></g></g></g><g clip-path="url(#f8a2dcdab4)"><g clip-path="url(#19e5ce3300)"><g clip-path="url(#0fed1d08b2)"><g clip-path="url(#3319dc626a)"><path fill="#f7ece4" d="M 27.722656 217.09375 C 31.34375 216.222656 35.160156 216.136719 38.863281 215.746094 C 42.910156 215.320312 46.925781 214.839844 51.003906 214.832031 C 59.269531 214.820312 67.589844 215.929688 75.53125 218.222656 C 76.460938 218.492188 76.851562 217.019531 75.917969 216.785156 C 68.070312 214.820312 60.222656 213.632812 52.121094 213.492188 C 47.65625 213.414062 43.269531 213.933594 38.851562 214.5 C 35.066406 214.984375 31.195312 215.332031 27.515625 216.367188 C 27.046875 216.503906 27.25 217.207031 27.722656 217.09375 Z M 27.722656 217.09375 " fill-opacity="1" fill-rule="nonzero"/></g></g></g></g><g clip-path="url(#8ba0e4c8cc)"><g clip-path="url(#ec533a0bd9)"><g clip-path="url(#b0ceca705a)"><g clip-path="url(#97af883f92)"><path fill="#f7ece4" d="M 9.855469 69.707031 C 6.257812 73.511719 4.386719 79.4375 5.042969 84.601562 C 5.09375 85.003906 5.617188 85.09375 5.757812 84.691406 C 6.863281 81.523438 6.039062 77.949219 7.597656 74.84375 C 8.417969 73.207031 9.570312 71.71875 10.285156 70.035156 C 10.398438 69.765625 10.085938 69.464844 9.855469 69.707031 Z M 9.855469 69.707031 " fill-opacity="1" fill-rule="nonzero"/></g></g></g></g><g clip-path="url(#f81a85d9ff)"><g clip-path="url(#2fc876f61d)"><g clip-path="url(#77eb87dcd1)"><g clip-path="url(#0acc175a45)"><path fill="#f7ece4" d="M 5.402344 91.996094 C 5.246094 92.664062 5.234375 93.328125 5.324219 94.007812 C 5.410156 94.632812 5.511719 95.410156 6.207031 95.609375 C 6.367188 95.65625 6.496094 95.574219 6.585938 95.453125 C 6.957031 94.964844 6.667969 94.34375 6.589844 93.796875 C 6.503906 93.191406 6.484375 92.582031 6.332031 91.988281 C 6.214844 91.53125 5.511719 91.535156 5.402344 91.996094 Z M 5.402344 91.996094 " fill-opacity="1" fill-rule="nonzero"/></g></g></g></g><g clip-path="url(#83ad7e3325)"><g clip-path="url(#f7dc072197)"><g clip-path="url(#e523ee3a3b)"><g clip-path="url(#03046b4bd5)"><path fill="#f7ece4" d="M 67.910156 53.152344 C 67.714844 55.863281 66.523438 60.015625 67.886719 62.578125 C 68.574219 63.875 69.582031 64.703125 70.742188 65.570312 C 71.566406 66.183594 72.398438 66.757812 73.164062 67.445312 C 74.078125 68.269531 74.316406 69.324219 75.292969 70.078125 C 75.734375 70.421875 76.332031 69.996094 76.066406 69.472656 C 74.648438 66.675781 72.589844 65.46875 70.222656 63.558594 C 67.5 61.359375 68.910156 56.210938 68.777344 53.148438 C 68.75 52.585938 67.949219 52.605469 67.910156 53.152344 Z M 67.910156 53.152344 " fill-opacity="1" fill-rule="nonzero"/></g></g></g></g><g clip-path="url(#0da66ea34e)"><g clip-path="url(#b7b21497ba)"><g clip-path="url(#c53e6f9bcf)"><g clip-path="url(#631919f60c)"><path fill="#f7ece4" d="M 78.410156 119.226562 C 78.253906 127.027344 78.203125 134.800781 78.640625 142.597656 C 78.992188 148.953125 78.441406 155.328125 79.015625 161.667969 C 79.503906 167.078125 80.394531 172.449219 80.90625 177.855469 C 81.285156 181.882812 82.09375 187.308594 79.972656 191.003906 C 79.628906 191.605469 80.507812 192.316406 80.96875 191.753906 C 83.324219 188.867188 82.992188 184.324219 82.820312 180.847656 C 82.539062 175.136719 81.558594 169.46875 80.898438 163.792969 C 80.152344 157.410156 80.667969 151.046875 80.40625 144.644531 C 80.0625 136.167969 79.609375 127.695312 79.289062 119.21875 C 79.269531 118.652344 78.421875 118.660156 78.410156 119.226562 Z M 78.410156 119.226562 " fill-opacity="1" fill-rule="nonzero"/></g></g></g></g><g clip-path="url(#2e911acfdd)"><g clip-path="url(#5c832fc466)"><g clip-path="url(#48cee36fec)"><g clip-path="url(#18cd76fd3a)"><path fill="#f68e5d" d="M 28.679688 148.570312 C 27.15625 148.582031 25.898438 149.859375 25.910156 151.375 C 25.925781 152.890625 27.207031 154.148438 28.726562 154.132812 C 30.25 154.121094 31.507812 152.84375 31.496094 151.328125 C 31.480469 149.8125 30.203125 148.554688 28.679688 148.570312 Z M 28.679688 148.570312 " fill-opacity="1" fill-rule="nonzero"/></g></g></g></g><g clip-path="url(#52e6b00f2d)"><g clip-path="url(#102b90f11f)"><g clip-path="url(#65cca1c073)"><g clip-path="url(#4f0dd9507f)"><path fill="#f68e5d" d="M 55.105469 128.875 C 54.933594 129.003906 54.78125 129.132812 54.628906 129.273438 C 54.160156 129.71875 54.167969 130.546875 54.640625 130.984375 C 54.796875 131.125 54.949219 131.25 55.125 131.371094 C 56.050781 132.023438 57.308594 131.125 57.296875 130.105469 C 57.289062 129.085938 56.019531 128.210938 55.105469 128.875 Z M 55.105469 128.875 " fill-opacity="1" fill-rule="nonzero"/></g></g></g></g><g clip-path="url(#998f79f7a7)"><g clip-path="url(#ebad09862a)"><g clip-path="url(#166c88d27b)"><g clip-path="url(#25b84c307e)"><path fill="#f68e5d" d="M 69.851562 139.355469 C 69.257812 139.074219 68.617188 139.023438 68.035156 139.371094 C 67.980469 139.402344 67.929688 139.441406 67.878906 139.480469 C 67.277344 139.601562 66.742188 139.960938 66.351562 140.523438 C 65.820312 141.292969 65.925781 142.34375 66.183594 143.1875 C 66.414062 143.949219 67.125 144.511719 67.941406 144.496094 C 69.046875 144.472656 70.089844 143.886719 70.605469 142.894531 C 71.179688 141.78125 71.15625 139.976562 69.851562 139.355469 Z M 69.851562 139.355469 " fill-opacity="1" fill-rule="nonzero"/></g></g></g></g><g clip-path="url(#1f64201985)"><g clip-path="url(#07fee83b2f)"><g clip-path="url(#21df92db10)"><g clip-path="url(#71c4c1faa4)"><path fill="#feab41" d="M 33.839844 164.460938 C 33.265625 163.09375 31.011719 162.921875 29.953125 163.949219 C 25.214844 168.550781 36.398438 170.5 33.839844 164.460938 Z M 33.839844 164.460938 " fill-opacity="1" fill-rule="nonzero"/></g></g></g></g><g clip-path="url(#52afc3ba61)"><g clip-path="url(#6efb9dc008)"><g clip-path="url(#bed584ed37)"><g clip-path="url(#ce065bc39f)"><path fill="#f7ece4" d="M 41.246094 40.511719 C 41 39.410156 39.71875 39.242188 39.46875 40.433594 C 39.164062 41.910156 41.601562 42.089844 41.246094 40.511719 Z M 41.246094 40.511719 " fill-opacity="1" fill-rule="nonzero"/></g></g></g></g><g clip-path="url(#85d6bfa2ec)"><g clip-path="url(#79b8aab8e2)"><g clip-path="url(#3285b25cea)"><g clip-path="url(#3509dc366f)"><path fill="#f7ece4" d="M 45.894531 42.640625 C 45.175781 41.953125 43.601562 42.222656 43.992188 43.449219 C 44.226562 44.1875 44.675781 45.148438 45.714844 44.648438 C 46.753906 44.148438 46.367188 43.09375 45.894531 42.640625 Z M 45.894531 42.640625 " fill-opacity="1" fill-rule="nonzero"/></g></g></g></g><g clip-path="url(#a29b081cf5)"><g clip-path="url(#3691cc1b03)"><g clip-path="url(#3539344892)"><g clip-path="url(#927a66c942)"><path fill="#f7ece4" d="M 68.046875 38.425781 C 66.878906 38.4375 66.894531 40.25 68.0625 40.238281 C 69.234375 40.226562 69.21875 38.417969 68.046875 38.425781 Z M 68.046875 38.425781 " fill-opacity="1" fill-rule="nonzero"/></g></g></g></g><g clip-path="url(#bb109b9f43)"><g clip-path="url(#b1b069f39d)"><g clip-path="url(#aa0d813279)"><g clip-path="url(#512ee59a1c)"><path fill="#f7ece4" d="M 33.828125 80.648438 C 32.65625 80.65625 32.671875 82.46875 33.84375 82.457031 C 35.015625 82.449219 35 80.636719 33.828125 80.648438 Z M 33.828125 80.648438 " fill-opacity="1" fill-rule="nonzero"/></g></g></g></g><g clip-path="url(#90425ed593)"><g clip-path="url(#a01d8d1219)"><g clip-path="url(#2b54dc7ebe)"><g clip-path="url(#29a3443ed2)"><path fill="#f7ece4" d="M 69.566406 134.191406 C 68.398438 134.199219 68.414062 136.011719 69.582031 136 C 70.753906 135.992188 70.738281 134.179688 69.566406 134.191406 Z M 69.566406 134.191406 " fill-opacity="1" fill-rule="nonzero"/></g></g></g></g><g clip-path="url(#c8a1923af0)"><g clip-path="url(#06175c413f)"><g clip-path="url(#6d579f4d53)"><g clip-path="url(#4041f55c8c)"><path fill="#f7ece4" d="M 34.878906 140.589844 C 33.410156 140.605469 33.429688 142.878906 34.898438 142.863281 C 36.371094 142.851562 36.351562 140.578125 34.878906 140.589844 Z M 34.878906 140.589844 " fill-opacity="1" fill-rule="nonzero"/></g></g></g></g><g clip-path="url(#89893fd062)"><g clip-path="url(#6054fe24b5)"><g clip-path="url(#63d9f2d85f)"><g clip-path="url(#5e203ec413)"><path fill="#f7ece4" d="M 65.214844 181.929688 C 63.742188 181.941406 63.761719 184.214844 65.234375 184.203125 C 66.703125 184.1875 66.683594 181.914062 65.214844 181.929688 Z M 65.214844 181.929688 " fill-opacity="1" fill-rule="nonzero"/></g></g></g></g><g clip-path="url(#4bb0f668bc)"><g clip-path="url(#38a03be70c)"><g clip-path="url(#a13ff37c99)"><g clip-path="url(#6c6cfc363f)"><path fill="#f7ece4" d="M 49.777344 7.074219 C 49.210938 7.125 48.644531 7.179688 48.078125 7.238281 C 42.386719 7.828125 34.867188 7.578125 29.84375 10.640625 C 28.660156 11.542969 26.882812 12.746094 27.195312 14.527344 C 27.507812 16.308594 29.894531 16.585938 31.6875 16.867188 C 34.671875 17.136719 37.363281 18.007812 40.34375 17.980469 C 46.007812 17.929688 51.671875 17.882812 57.335938 17.832031 C 60.617188 17.804688 63.890625 17.183594 67.464844 17.152344 C 69.792969 17.132812 72.574219 17.980469 74.835938 17.199219 C 77.363281 16.328125 79.65625 12.636719 76.652344 10.535156 C 74.253906 8.773438 70.96875 8.207031 68.28125 7.636719 C 62.203125 6.34375 55.933594 6.503906 49.777344 7.074219 Z M 49.777344 7.074219 " fill-opacity="1" fill-rule="nonzero"/></g></g></g></g><g clip-path="url(#664e1c9d5c)"><g clip-path="url(#a5ab41c53f)"><g clip-path="url(#a138a95001)"><g clip-path="url(#77759a4595)"><path fill="#f7ece4" d="M 25.273438 9.476562 C 23.511719 10.105469 22.152344 11.6875 21.328125 13.332031 C 20.992188 14.007812 20.753906 14.882812 21.097656 15.601562 C 21.398438 16.238281 22.277344 16.894531 22.960938 16.425781 C 23.117188 16.3125 23.214844 16.128906 23.152344 15.933594 C 23.015625 15.484375 22.488281 15.34375 22.429688 14.875 C 22.355469 14.285156 22.773438 13.65625 23.0625 13.179688 C 23.726562 12.082031 24.707031 10.945312 25.601562 10.019531 C 25.816406 9.792969 25.59375 9.359375 25.273438 9.476562 Z M 25.273438 9.476562 " fill-opacity="1" fill-rule="nonzero"/></g></g></g></g><g clip-path="url(#203eabb5cc)"><g clip-path="url(#957563f96a)"><g clip-path="url(#660e73de4f)"><g clip-path="url(#8565fd5e3d)"><path fill="#f7ece4" d="M 73.765625 21.398438 C 75.324219 21.5625 76.707031 21.320312 78.042969 20.480469 C 79.386719 19.632812 79.886719 18.496094 80.421875 17.074219 C 80.472656 16.9375 80.28125 16.855469 80.1875 16.941406 C 79.316406 17.757812 78.339844 18.660156 77.375 19.359375 C 76.324219 20.121094 74.898438 20.34375 73.640625 20.535156 C 73.109375 20.621094 73.316406 21.351562 73.765625 21.398438 Z M 73.765625 21.398438 " fill-opacity="1" fill-rule="nonzero"/></g></g></g></g><path stroke-linecap="butt" transform="matrix(0.720227, 0, 0, 0.720227, 63.496751, 121.799023)" fill="none" stroke-linejoin="miter" d="M 69.860997 81.210606 C 73.87449 81.210606 77.768664 80.608582 81.554365 79.39911 C 85.334642 78.167944 88.11697 76.996437 89.8905 75.879168 L 92.526389 74.067672 L 103.737053 96.456459 C 103.368246 96.727641 102.858424 97.101872 102.19674 97.584576 C 101.535056 98.040162 100.02186 98.90252 97.651729 100.182499 C 95.281598 101.43536 92.743335 102.525512 90.031515 103.463802 C 87.319694 104.396668 83.761786 105.226485 79.363214 105.958676 C 74.99176 106.707139 70.468444 107.086793 65.793266 107.086793 C 55.065306 107.086793 44.890557 104.450904 35.274443 99.189973 C 25.658329 93.923619 17.907947 86.677635 12.028721 77.452023 C 6.154919 68.199293 3.215306 58.208948 3.215306 47.475564 C 3.215306 39.340103 4.934599 31.546332 8.373187 24.094251 C 11.838893 16.620475 16.43814 10.231426 22.181775 4.921683 C 27.92541 -0.409756 34.623606 -4.66189 42.281786 -7.829296 C 49.934542 -11.018396 57.777126 -12.612946 65.793266 -12.612946 C 73.272466 -12.612946 80.149642 -11.723469 86.441065 -9.944515 C 92.754182 -8.170985 97.206991 -6.392031 99.804914 -4.613077 L 103.737053 -1.95007 L 92.526389 20.438717 C 91.8864 19.869235 90.904721 19.196704 89.586776 18.421123 C 88.285102 17.623848 85.676331 16.577085 81.760463 15.280835 C 77.839171 13.957467 73.87449 13.295783 69.860997 13.295783 C 63.50449 13.295783 57.809668 14.320851 52.771106 16.370987 C 47.737968 18.421123 43.751593 21.132943 40.81198 24.506447 C 37.872367 27.858257 35.62698 31.470401 34.075818 35.342881 C 32.551776 39.21536 31.787042 43.158346 31.787042 47.166416 C 31.787042 55.941866 35.068345 63.811568 41.630949 70.786369 C 48.215248 77.734053 57.625264 81.210606 69.860997 81.210606 Z M 109.187812 -6.869311 C 112.078612 -9.765535 115.533471 -11.213647 119.541541 -11.213647 C 123.576729 -11.213647 127.042435 -9.765535 129.933236 -6.869311 C 132.82946 -3.978511 134.272148 -0.512805 134.272148 3.522383 C 134.272148 7.530454 132.82946 10.985312 129.933236 13.876113 C 127.042435 16.750642 123.576729 18.182483 119.541541 18.182483 C 115.533471 18.182483 112.078612 16.750642 109.187812 13.876113 C 106.291588 10.985312 104.843476 7.530454 104.843476 3.522383 C 104.843476 -0.512805 106.291588 -3.978511 109.187812 -6.869311 Z M 106.828528 33.189695 L 106.828528 104.998692 L 131.609141 104.998692 L 131.609141 33.189695 Z M 146.996008 96.114769 C 140.276118 88.776584 136.913461 79.784189 136.913461 69.143006 C 136.913461 58.501824 140.276118 49.504005 146.996008 42.144125 C 153.715898 34.762551 162.263555 31.069052 172.628132 31.069052 C 182.130349 31.069052 189.972933 34.052054 196.145036 40.023482 L 196.145036 -15.416968 L 220.925648 -15.416968 L 220.925648 104.998692 L 196.421641 104.998692 L 196.421641 96.863232 L 196.145036 96.863232 C 189.972933 103.680747 182.130349 107.086793 172.628132 107.086793 C 162.263555 107.086793 153.715898 103.425836 146.996008 96.114769 Z M 168.050579 56.977781 C 164.839784 60.145187 163.228963 64.212917 163.228963 69.180972 C 163.228963 74.121908 164.769277 78.157096 167.844481 81.281113 C 170.946803 84.399706 175.014533 85.961715 180.047671 85.961715 C 184.901829 85.961715 188.888205 84.378012 192.012222 81.210606 C 195.130815 78.021505 196.692823 73.997164 196.692823 69.143006 C 196.692823 64.20207 195.087426 60.145187 191.876631 56.977781 C 188.660412 53.810376 184.717426 52.226673 180.047671 52.226673 C 175.285715 52.226673 171.288492 53.810376 168.050579 56.977781 Z M 303.392097 72.527358 L 251.303457 72.527358 C 251.303457 77.56592 252.935972 81.302808 256.190156 83.738022 C 259.471459 86.156966 263.029367 87.361014 266.858457 87.361014 C 270.866527 87.361014 274.033933 86.829497 276.360674 85.755616 C 278.681992 84.687159 281.350423 82.555669 284.35512 79.366568 L 302.26398 88.35354 C 294.790204 100.83876 282.375491 107.086793 265.008995 107.086793 C 254.188833 107.086793 244.903561 103.382447 237.153179 95.979178 C 229.408221 88.548791 225.535742 79.616056 225.535742 69.180972 C 225.535742 58.71877 229.408221 49.753493 237.153179 42.279716 C 244.903561 34.80594 254.188833 31.069052 265.008995 31.069052 C 276.404064 31.069052 285.667641 34.361202 292.799728 40.945501 C 299.953509 47.535224 303.533112 56.934392 303.533112 69.143006 C 303.533112 70.829759 303.484299 71.957876 303.392097 72.527358 Z M 251.986835 58.789277 L 279.300287 58.789277 C 278.725382 55.052389 277.260999 52.183283 274.890868 50.176537 C 272.520737 48.16979 269.467228 47.166416 265.73034 47.166416 C 261.624644 47.166416 258.359613 48.251144 255.918974 50.415177 C 253.505455 52.557515 252.192934 55.350689 251.986835 58.789277 Z M 308.14863 104.998692 L 308.14863 33.189695 L 332.929242 33.189695 L 332.929242 43.543425 L 333.200424 43.543425 C 333.384828 43.158346 333.683128 42.691913 334.089901 42.144125 C 334.523792 41.574643 335.434964 40.592964 336.823416 39.204512 C 338.238986 37.788942 339.730487 36.525234 341.303342 35.407964 C 342.897893 34.296118 344.948029 33.292745 347.45375 32.403268 C 349.98659 31.513791 352.557396 31.069052 355.177014 31.069052 C 357.888834 31.069052 360.546418 31.443283 363.144342 32.197169 C 365.76396 32.951055 367.678505 33.699518 368.887977 34.453404 L 370.867605 35.548979 L 360.513876 56.565585 C 357.411554 53.945967 353.116031 52.638869 347.627307 52.638869 C 344.638881 52.638869 342.068076 53.29513 339.904043 54.618498 C 337.761705 55.920172 336.243086 57.503875 335.353609 59.369607 C 334.49125 61.240763 333.862108 62.824466 333.47703 64.120716 C 333.113646 65.422389 332.929242 66.447457 332.929242 67.19592 L 332.929242 104.998692 Z M 308.14863 104.998692 " stroke="#000000" stroke-width="10.5" stroke-opacity="1" stroke-miterlimit="4"/><g fill="#feab41" fill-opacity="1"><g transform="translate(63.496751, 197.422817)"><g><path d="M 50.3125 -17.140625 C 53.207031 -17.140625 56.015625 -17.578125 58.734375 -18.453125 C 61.453125 -19.328125 63.453125 -20.164062 64.734375 -20.96875 L 66.640625 -22.28125 L 74.71875 -6.15625 C 74.445312 -5.945312 74.078125 -5.675781 73.609375 -5.34375 C 73.140625 -5.007812 72.046875 -4.390625 70.328125 -3.484375 C 68.609375 -2.578125 66.773438 -1.785156 64.828125 -1.109375 C 62.878906 -0.429688 60.328125 0.171875 57.171875 0.703125 C 54.015625 1.242188 50.753906 1.515625 47.390625 1.515625 C 39.660156 1.515625 32.332031 -0.378906 25.40625 -4.171875 C 18.476562 -7.972656 12.894531 -13.203125 8.65625 -19.859375 C 4.425781 -26.515625 2.3125 -33.707031 2.3125 -41.4375 C 2.3125 -47.289062 3.554688 -52.90625 6.046875 -58.28125 C 8.535156 -63.65625 11.847656 -68.257812 15.984375 -72.09375 C 20.117188 -75.925781 24.941406 -78.984375 30.453125 -81.265625 C 35.960938 -83.554688 41.609375 -84.703125 47.390625 -84.703125 C 52.765625 -84.703125 57.71875 -84.0625 62.25 -82.78125 C 66.789062 -81.5 70.003906 -80.222656 71.890625 -78.953125 L 74.71875 -77.03125 L 66.640625 -60.90625 C 66.171875 -61.300781 65.46875 -61.785156 64.53125 -62.359375 C 63.59375 -62.929688 61.710938 -63.6875 58.890625 -64.625 C 56.066406 -65.570312 53.207031 -66.046875 50.3125 -66.046875 C 45.738281 -66.046875 41.632812 -65.304688 38 -63.828125 C 34.375 -62.347656 31.503906 -60.394531 29.390625 -57.96875 C 27.273438 -55.550781 25.660156 -52.945312 24.546875 -50.15625 C 23.441406 -47.375 22.890625 -44.535156 22.890625 -41.640625 C 22.890625 -35.328125 25.257812 -29.664062 30 -24.65625 C 34.738281 -19.644531 41.507812 -17.140625 50.3125 -17.140625 Z M 50.3125 -17.140625 "/></g></g></g><g fill="#feab41" fill-opacity="1"><g transform="translate(134.381507, 197.422817)"><g><path d="M 7.765625 -80.5625 C 9.847656 -82.644531 12.332031 -83.6875 15.21875 -83.6875 C 18.113281 -83.6875 20.601562 -82.644531 22.6875 -80.5625 C 24.769531 -78.476562 25.8125 -75.988281 25.8125 -73.09375 C 25.8125 -70.207031 24.769531 -67.722656 22.6875 -65.640625 C 20.601562 -63.554688 18.113281 -62.515625 15.21875 -62.515625 C 12.332031 -62.515625 9.847656 -63.554688 7.765625 -65.640625 C 5.679688 -67.722656 4.640625 -70.207031 4.640625 -73.09375 C 4.640625 -75.988281 5.679688 -78.476562 7.765625 -80.5625 Z M 6.046875 -51.71875 L 6.046875 0 L 23.890625 0 L 23.890625 -51.71875 Z M 6.046875 -51.71875 "/></g></g></g><g fill="#feab41" fill-opacity="1"><g transform="translate(159.791123, 197.422817)"><g><path d="M 9.578125 -6.390625 C 4.734375 -11.671875 2.3125 -18.144531 2.3125 -25.8125 C 2.3125 -33.476562 4.734375 -39.960938 9.578125 -45.265625 C 14.421875 -50.578125 20.570312 -53.234375 28.03125 -53.234375 C 34.882812 -53.234375 40.53125 -51.082031 44.96875 -46.78125 L 44.96875 -86.71875 L 62.8125 -86.71875 L 62.8125 0 L 45.171875 0 L 45.171875 -5.84375 L 44.96875 -5.84375 C 40.53125 -0.9375 34.882812 1.515625 28.03125 1.515625 C 20.570312 1.515625 14.421875 -1.117188 9.578125 -6.390625 Z M 24.75 -34.578125 C 22.4375 -32.296875 21.28125 -29.375 21.28125 -25.8125 C 21.28125 -22.25 22.382812 -19.34375 24.59375 -17.09375 C 26.8125 -14.84375 29.738281 -13.71875 33.375 -13.71875 C 36.875 -13.71875 39.75 -14.859375 42 -17.140625 C 44.25 -19.421875 45.375 -22.3125 45.375 -25.8125 C 45.375 -29.375 44.210938 -32.296875 41.890625 -34.578125 C 39.578125 -36.867188 36.738281 -38.015625 33.375 -38.015625 C 29.945312 -38.015625 27.070312 -36.867188 24.75 -34.578125 Z M 24.75 -34.578125 "/></g></g></g><g fill="#feab41" fill-opacity="1"><g transform="translate(223.617656, 197.422817)"><g><path d="M 58.375 -23.390625 L 20.875 -23.390625 C 20.875 -19.765625 22.046875 -17.078125 24.390625 -15.328125 C 26.742188 -13.578125 29.300781 -12.703125 32.0625 -12.703125 C 34.957031 -12.703125 37.242188 -13.085938 38.921875 -13.859375 C 40.597656 -14.628906 42.515625 -16.160156 44.671875 -18.453125 L 57.578125 -12 C 52.191406 -2.988281 43.25 1.515625 30.75 1.515625 C 22.957031 1.515625 16.269531 -1.15625 10.6875 -6.5 C 5.101562 -11.84375 2.3125 -18.28125 2.3125 -25.8125 C 2.3125 -33.34375 5.101562 -39.796875 10.6875 -45.171875 C 16.269531 -50.546875 22.957031 -53.234375 30.75 -53.234375 C 38.945312 -53.234375 45.617188 -50.863281 50.765625 -46.125 C 55.910156 -41.382812 58.484375 -34.613281 58.484375 -25.8125 C 58.484375 -24.601562 58.445312 -23.796875 58.375 -23.390625 Z M 21.375 -33.265625 L 41.03125 -33.265625 C 40.632812 -35.960938 39.578125 -38.03125 37.859375 -39.46875 C 36.148438 -40.914062 33.945312 -41.640625 31.25 -41.640625 C 28.289062 -41.640625 25.9375 -40.863281 24.1875 -39.3125 C 22.445312 -37.769531 21.507812 -35.753906 21.375 -33.265625 Z M 21.375 -33.265625 "/></g></g></g><g fill="#feab41" fill-opacity="1"><g transform="translate(279.377643, 197.422817)"><g><path d="M 6.046875 0 L 6.046875 -51.71875 L 23.890625 -51.71875 L 23.890625 -44.265625 L 24.09375 -44.265625 C 24.226562 -44.535156 24.445312 -44.867188 24.75 -45.265625 C 25.050781 -45.671875 25.707031 -46.378906 26.71875 -47.390625 C 27.726562 -48.398438 28.800781 -49.304688 29.9375 -50.109375 C 31.082031 -50.921875 32.5625 -51.644531 34.375 -52.28125 C 36.195312 -52.914062 38.046875 -53.234375 39.921875 -53.234375 C 41.878906 -53.234375 43.796875 -52.960938 45.671875 -52.421875 C 47.554688 -51.890625 48.9375 -51.351562 49.8125 -50.8125 L 51.21875 -50.015625 L 43.765625 -34.890625 C 41.546875 -36.765625 38.453125 -37.703125 34.484375 -37.703125 C 32.328125 -37.703125 30.476562 -37.234375 28.9375 -36.296875 C 27.394531 -35.359375 26.300781 -34.21875 25.65625 -32.875 C 25.019531 -31.53125 24.566406 -30.382812 24.296875 -29.4375 C 24.023438 -28.5 23.890625 -27.757812 23.890625 -27.21875 L 23.890625 0 Z M 6.046875 0 "/></g></g></g></svg>