<svg xmlns="http://www.w3.org/2000/svg" xmlns:xlink="http://www.w3.org/1999/xlink" width="500" zoomAndPan="magnify" viewBox="0 0 375 374.999991" height="500" preserveAspectRatio="xMidYMid meet" version="1.0"><defs><g/></defs><path stroke-linecap="butt" transform="matrix(0.907368, 0, 0, 0.907368, 8.559325, 127.16)" fill="none" stroke-linejoin="miter" d="M 69.861272 81.210317 C 73.873563 81.210317 77.769618 80.607613 81.553742 79.397898 C 85.333562 78.170964 88.114613 76.99569 89.892592 75.880686 L 92.522967 74.068267 L 103.733273 96.45444 C 103.37165 96.729962 102.859352 97.1045 102.196376 97.582358 C 101.537706 98.038692 100.022335 98.904003 97.650261 100.182598 C 95.282493 101.435363 92.742524 102.528841 90.030353 103.463034 C 87.318182 104.397226 83.762224 105.228097 79.366786 105.955648 C 74.988567 106.709029 70.468282 107.083566 65.797321 107.083566 C 55.064873 107.083566 44.887775 104.453191 35.274636 99.188136 C 25.657192 93.927385 17.908132 86.677709 12.031762 77.452023 C 6.151087 68.200507 3.210749 58.208525 3.210749 47.476077 C 3.210749 39.339565 4.932762 31.547455 8.372484 24.095442 C 11.838035 16.621905 16.440116 10.233236 22.18303 4.920825 C 27.925944 -0.408806 34.624576 -4.657874 42.278925 -7.826379 C 49.937579 -11.016408 57.777044 -12.613575 65.797321 -12.613575 C 73.270859 -12.613575 80.150302 -11.722434 86.439955 -9.944455 C 92.751134 -8.170781 97.206843 -6.392803 99.802778 -4.614824 L 103.733273 -1.950008 L 92.522967 20.440469 C 91.885822 19.8679 90.908579 19.196315 89.586934 18.421409 C 88.286814 17.624977 85.677964 16.578854 81.756079 15.278734 C 77.838499 13.957089 73.873563 13.294114 69.861272 13.294114 C 63.507043 13.294114 57.80718 14.323017 52.774596 16.372213 C 47.737707 18.421409 43.751246 21.133579 40.810909 24.508725 C 37.870571 27.858041 35.627649 31.469964 34.077837 35.340189 C 32.54955 39.214719 31.787559 43.158129 31.787559 47.166115 C 31.787559 55.939773 35.067994 63.813678 41.628865 70.787832 C 48.215566 77.736155 57.626368 81.210317 69.861272 81.210317 Z M 109.18775 -6.870661 C 112.080733 -9.763643 115.533369 -11.210135 119.541355 -11.210135 C 123.575171 -11.210135 127.040723 -9.763643 129.933705 -6.870661 C 132.826687 -3.977679 134.273179 -0.512127 134.273179 3.521689 C 134.273179 7.529675 132.826687 10.982311 129.933705 13.875294 C 127.040723 16.746751 123.575171 18.184632 119.541355 18.184632 C 115.533369 18.184632 112.080733 16.746751 109.18775 13.875294 C 106.294768 10.982311 104.843972 7.529675 104.843972 3.521689 C 104.843972 -0.512127 106.294768 -3.977679 109.18775 -6.870661 Z M 106.828592 33.187672 L 106.828592 104.99993 L 131.608363 104.99993 L 131.608363 33.187672 Z M 146.994551 96.114342 C 140.274395 88.77426 136.912164 79.785351 136.912164 69.147614 C 136.912164 58.505572 140.274395 49.503748 146.994551 42.142141 C 153.719013 34.759009 162.264504 31.069596 172.631024 31.069596 C 182.132232 31.069596 189.971698 34.052984 196.145115 40.024065 L 196.145115 -15.416152 L 220.924886 -15.416152 L 220.924886 104.99993 L 196.420637 104.99993 L 196.420637 96.863418 L 196.145115 96.863418 C 189.971698 103.678285 182.132232 107.083566 172.631024 107.083566 C 162.264504 107.083566 153.719013 103.428593 146.994551 96.114342 Z M 168.050469 56.977286 C 164.838914 60.14579 163.233137 64.214046 163.233137 69.17775 C 163.233137 74.124233 164.770033 78.158049 167.843827 81.279198 C 170.943451 84.400347 175.011707 85.963074 180.048596 85.963074 C 184.900368 85.963074 188.886829 84.378822 192.012283 81.210317 C 195.133432 78.020288 196.691854 73.999387 196.691854 69.147614 C 196.691854 64.201131 195.086077 60.14579 191.874522 56.977286 C 188.662967 53.808781 184.719557 52.224529 180.048596 52.224529 C 175.287229 52.224529 171.287854 53.808781 168.050469 56.977286 Z M 303.396406 72.53137 L 251.305505 72.53137 C 251.305505 77.563954 252.932807 81.300723 256.191718 83.741677 C 259.472153 86.1568 263.02811 87.36221 266.855285 87.36221 C 270.867576 87.36221 274.03608 86.828385 276.356493 85.756432 C 278.681211 84.684479 281.350331 82.553488 284.355244 79.363458 L 302.268487 88.352367 C 294.790645 100.841268 282.374929 107.083566 265.01273 107.083566 C 254.185572 107.083566 244.899616 103.381238 237.154861 95.976581 C 229.405801 88.546094 225.531271 79.617455 225.531271 69.17775 C 225.531271 58.720824 229.405801 49.75344 237.154861 42.279902 C 244.899616 34.806365 254.185572 31.069596 265.01273 31.069596 C 276.403848 31.069596 285.66828 34.362946 292.797414 40.945342 C 299.95238 47.532043 303.529862 56.92993 303.529862 69.147614 C 303.529862 70.830882 303.486812 71.958801 303.396406 72.53137 Z M 251.990005 58.789705 L 279.29683 58.789705 C 278.728566 55.052936 277.256245 52.181479 274.888477 50.175333 C 272.520708 48.169188 269.464135 47.166115 265.727366 47.166115 C 261.628974 47.166115 258.357149 48.250983 255.9205 50.416415 C 253.505377 52.556016 252.192342 55.349983 251.990005 58.789705 Z M 308.149163 104.99993 L 308.149163 33.187672 L 332.928934 33.187672 L 332.928934 43.545582 L 333.200151 43.545582 C 333.385267 43.158129 333.682314 42.688881 334.091293 42.142141 C 334.521796 41.573877 335.434463 40.592329 336.824989 39.206109 C 338.237039 37.789753 339.730886 36.528378 341.302223 35.409069 C 342.89939 34.294066 344.948586 33.290993 347.454115 32.404156 C 349.985475 31.513014 352.559885 31.069596 355.18165 31.069596 C 357.889516 31.069596 360.545721 31.444134 363.141656 32.197515 C 365.763421 32.950895 367.679161 33.699971 368.884571 34.453352 L 370.869191 35.54683 L 360.511281 56.568307 C 357.411657 53.946542 353.119539 52.637812 347.626317 52.637812 C 344.642929 52.637812 342.064214 53.296482 339.903087 54.618127 C 337.759181 55.918247 336.243809 57.5025 335.356972 59.370884 C 334.491661 61.239268 333.863126 62.823521 333.475673 64.119336 C 333.109745 65.419456 332.928934 66.444053 332.928934 67.197434 L 332.928934 104.99993 Z M 308.149163 104.99993 " stroke="#000000" stroke-width="10.5" stroke-opacity="1" stroke-miterlimit="4"/><g fill="#feab41" fill-opacity="1"><g transform="translate(8.559325, 222.433657)"><g><path d="M 63.390625 -21.59375 C 67.023438 -21.59375 70.554688 -22.140625 73.984375 -23.234375 C 77.421875 -24.335938 79.941406 -25.398438 81.546875 -26.421875 L 83.96875 -28.078125 L 94.125 -7.75 C 93.789062 -7.5 93.328125 -7.160156 92.734375 -6.734375 C 92.140625 -6.304688 90.757812 -5.519531 88.59375 -4.375 C 86.4375 -3.238281 84.128906 -2.242188 81.671875 -1.390625 C 79.222656 -0.546875 76.007812 0.210938 72.03125 0.890625 C 68.050781 1.566406 63.941406 1.90625 59.703125 1.90625 C 49.960938 1.90625 40.726562 -0.484375 32 -5.265625 C 23.28125 -10.054688 16.253906 -16.640625 10.921875 -25.015625 C 5.585938 -33.398438 2.921875 -42.460938 2.921875 -52.203125 C 2.921875 -59.578125 4.488281 -66.648438 7.625 -73.421875 C 10.757812 -80.203125 14.929688 -86.003906 20.140625 -90.828125 C 25.347656 -95.648438 31.421875 -99.5 38.359375 -102.375 C 45.304688 -105.257812 52.421875 -106.703125 59.703125 -106.703125 C 66.484375 -106.703125 72.726562 -105.894531 78.4375 -104.28125 C 84.15625 -102.675781 88.203125 -101.070312 90.578125 -99.46875 L 94.125 -97.046875 L 83.96875 -76.734375 C 83.375 -77.234375 82.484375 -77.84375 81.296875 -78.5625 C 80.109375 -79.289062 77.734375 -80.242188 74.171875 -81.421875 C 70.617188 -82.609375 67.023438 -83.203125 63.390625 -83.203125 C 57.628906 -83.203125 52.460938 -82.269531 47.890625 -80.40625 C 43.316406 -78.539062 39.695312 -76.082031 37.03125 -73.03125 C 34.363281 -69.988281 32.332031 -66.707031 30.9375 -63.1875 C 29.539062 -59.675781 28.84375 -56.101562 28.84375 -52.46875 C 28.84375 -44.5 31.828125 -37.359375 37.796875 -31.046875 C 43.765625 -24.742188 52.296875 -21.59375 63.390625 -21.59375 Z M 63.390625 -21.59375 "/></g></g></g><g fill="#feab41" fill-opacity="1"><g transform="translate(97.862566, 222.433657)"><g><path d="M 9.78125 -101.5 C 12.40625 -104.125 15.535156 -105.4375 19.171875 -105.4375 C 22.816406 -105.4375 25.953125 -104.125 28.578125 -101.5 C 31.203125 -98.875 32.515625 -95.738281 32.515625 -92.09375 C 32.515625 -88.457031 31.203125 -85.328125 28.578125 -82.703125 C 25.953125 -80.078125 22.816406 -78.765625 19.171875 -78.765625 C 15.535156 -78.765625 12.40625 -80.078125 9.78125 -82.703125 C 7.15625 -85.328125 5.84375 -88.457031 5.84375 -92.09375 C 5.84375 -95.738281 7.15625 -98.875 9.78125 -101.5 Z M 7.625 -65.171875 L 7.625 0 L 30.109375 0 L 30.109375 -65.171875 Z M 7.625 -65.171875 "/></g></g></g><g fill="#feab41" fill-opacity="1"><g transform="translate(129.874541, 222.433657)"><g><path d="M 12.0625 -8.0625 C 5.96875 -14.707031 2.921875 -22.859375 2.921875 -32.515625 C 2.921875 -42.171875 5.96875 -50.34375 12.0625 -57.03125 C 18.164062 -63.726562 25.914062 -67.078125 35.3125 -67.078125 C 43.945312 -67.078125 51.0625 -64.363281 56.65625 -58.9375 L 56.65625 -109.25 L 79.140625 -109.25 L 79.140625 0 L 56.90625 0 L 56.90625 -7.375 L 56.65625 -7.375 C 51.0625 -1.1875 43.945312 1.90625 35.3125 1.90625 C 25.914062 1.90625 18.164062 -1.414062 12.0625 -8.0625 Z M 31.171875 -43.5625 C 28.253906 -40.6875 26.796875 -37.003906 26.796875 -32.515625 C 26.796875 -28.023438 28.191406 -24.363281 30.984375 -21.53125 C 33.785156 -18.695312 37.472656 -17.28125 42.046875 -17.28125 C 46.453125 -17.28125 50.070312 -18.71875 52.90625 -21.59375 C 55.75 -24.476562 57.171875 -28.117188 57.171875 -32.515625 C 57.171875 -37.003906 55.707031 -40.6875 52.78125 -43.5625 C 49.863281 -46.445312 46.285156 -47.890625 42.046875 -47.890625 C 37.722656 -47.890625 34.097656 -46.445312 31.171875 -43.5625 Z M 31.171875 -43.5625 "/></g></g></g><g fill="#feab41" fill-opacity="1"><g transform="translate(210.285571, 222.433657)"><g><path d="M 73.546875 -29.46875 L 26.296875 -29.46875 C 26.296875 -24.894531 27.773438 -21.503906 30.734375 -19.296875 C 33.703125 -17.097656 36.921875 -16 40.390625 -16 C 44.035156 -16 46.914062 -16.484375 49.03125 -17.453125 C 51.144531 -18.429688 53.5625 -20.363281 56.28125 -23.25 L 72.53125 -15.109375 C 65.757812 -3.765625 54.5 1.90625 38.75 1.90625 C 28.925781 1.90625 20.5 -1.457031 13.46875 -8.1875 C 6.4375 -14.925781 2.921875 -23.035156 2.921875 -32.515625 C 2.921875 -42.003906 6.4375 -50.132812 13.46875 -56.90625 C 20.5 -63.6875 28.925781 -67.078125 38.75 -67.078125 C 49.082031 -67.078125 57.484375 -64.085938 63.953125 -58.109375 C 70.429688 -52.140625 73.671875 -43.609375 73.671875 -32.515625 C 73.671875 -30.992188 73.628906 -29.976562 73.546875 -29.46875 Z M 26.9375 -41.921875 L 51.703125 -41.921875 C 51.191406 -45.304688 49.859375 -47.910156 47.703125 -49.734375 C 45.546875 -51.554688 42.769531 -52.46875 39.375 -52.46875 C 35.65625 -52.46875 32.691406 -51.492188 30.484375 -49.546875 C 28.285156 -47.597656 27.101562 -45.054688 26.9375 -41.921875 Z M 26.9375 -41.921875 "/></g></g></g><g fill="#feab41" fill-opacity="1"><g transform="translate(280.534067, 222.433657)"><g><path d="M 7.625 0 L 7.625 -65.171875 L 30.109375 -65.171875 L 30.109375 -55.765625 L 30.359375 -55.765625 C 30.523438 -56.109375 30.800781 -56.53125 31.1875 -57.03125 C 31.570312 -57.539062 32.394531 -58.429688 33.65625 -59.703125 C 34.925781 -60.972656 36.28125 -62.113281 37.71875 -63.125 C 39.164062 -64.144531 41.03125 -65.054688 43.3125 -65.859375 C 45.601562 -66.671875 47.929688 -67.078125 50.296875 -67.078125 C 52.753906 -67.078125 55.171875 -66.738281 57.546875 -66.0625 C 59.921875 -65.382812 61.65625 -64.707031 62.75 -64.03125 L 64.53125 -63 L 55.125 -43.953125 C 52.332031 -46.328125 48.4375 -47.515625 43.4375 -47.515625 C 40.726562 -47.515625 38.398438 -46.921875 36.453125 -45.734375 C 34.503906 -44.546875 33.128906 -43.101562 32.328125 -41.40625 C 31.523438 -39.71875 30.953125 -38.28125 30.609375 -37.09375 C 30.273438 -35.90625 30.109375 -34.972656 30.109375 -34.296875 L 30.109375 0 Z M 7.625 0 "/></g></g></g></svg>