<svg xmlns="http://www.w3.org/2000/svg" xmlns:xlink="http://www.w3.org/1999/xlink" width="500" zoomAndPan="magnify" viewBox="0 0 375 374.999991" height="500" preserveAspectRatio="xMidYMid meet" version="1.0"><defs><clipPath id="e11dc8857c"><path d="M 117 38 L 255 38 L 255 339 L 117 339 Z M 117 38 " clip-rule="nonzero"/></clipPath><clipPath id="7c29d1d8ad"><path d="M 114.875 38.707031 L 254.371094 37.503906 L 256.996094 341.242188 L 117.5 342.445312 Z M 114.875 38.707031 " clip-rule="nonzero"/></clipPath><clipPath id="16987f31f4"><path d="M 114.875 38.707031 L 254.371094 37.503906 L 256.996094 341.242188 L 117.5 342.445312 Z M 114.875 38.707031 " clip-rule="nonzero"/></clipPath><clipPath id="0d6c3fb502"><path d="M 114.875 38.707031 L 254.371094 37.503906 L 256.996094 341.242188 L 117.5 342.445312 Z M 114.875 38.707031 " clip-rule="nonzero"/></clipPath><clipPath id="60d3ad62b8"><path d="M 127 68 L 245 68 L 245 329 L 127 329 Z M 127 68 " clip-rule="nonzero"/></clipPath><clipPath id="c83a045220"><path d="M 114.875 38.707031 L 254.371094 37.503906 L 256.996094 341.242188 L 117.5 342.445312 Z M 114.875 38.707031 " clip-rule="nonzero"/></clipPath><clipPath id="63e70c8f07"><path d="M 114.875 38.707031 L 254.371094 37.503906 L 256.996094 341.242188 L 117.5 342.445312 Z M 114.875 38.707031 " clip-rule="nonzero"/></clipPath><clipPath id="ec78bad678"><path d="M 114.875 38.707031 L 254.371094 37.503906 L 256.996094 341.242188 L 117.5 342.445312 Z M 114.875 38.707031 " clip-rule="nonzero"/></clipPath><clipPath id="4eaec4219e"><path d="M 129 223 L 245 223 L 245 329 L 129 329 Z M 129 223 " clip-rule="nonzero"/></clipPath><clipPath id="5820c11bc7"><path d="M 114.875 38.707031 L 254.371094 37.503906 L 256.996094 341.242188 L 117.5 342.445312 Z M 114.875 38.707031 " clip-rule="nonzero"/></clipPath><clipPath id="c7705eabd9"><path d="M 114.875 38.707031 L 254.371094 37.503906 L 256.996094 341.242188 L 117.5 342.445312 Z M 114.875 38.707031 " clip-rule="nonzero"/></clipPath><clipPath id="6b18c56334"><path d="M 114.875 38.707031 L 254.371094 37.503906 L 256.996094 341.242188 L 117.5 342.445312 Z M 114.875 38.707031 " clip-rule="nonzero"/></clipPath><clipPath id="ca524c8611"><path d="M 149 67 L 220 67 L 220 88 L 149 88 Z M 149 67 " clip-rule="nonzero"/></clipPath><clipPath id="9c0c362687"><path d="M 114.875 38.707031 L 254.371094 37.503906 L 256.996094 341.242188 L 117.5 342.445312 Z M 114.875 38.707031 " clip-rule="nonzero"/></clipPath><clipPath id="db37568801"><path d="M 114.875 38.707031 L 254.371094 37.503906 L 256.996094 341.242188 L 117.5 342.445312 Z M 114.875 38.707031 " clip-rule="nonzero"/></clipPath><clipPath id="d89e698c66"><path d="M 114.875 38.707031 L 254.371094 37.503906 L 256.996094 341.242188 L 117.5 342.445312 Z M 114.875 38.707031 " clip-rule="nonzero"/></clipPath><clipPath id="422939f1f6"><path d="M 150 73 L 151 73 L 151 74 L 150 74 Z M 150 73 " clip-rule="nonzero"/></clipPath><clipPath id="6569b195fe"><path d="M 114.875 38.707031 L 254.371094 37.503906 L 256.996094 341.242188 L 117.5 342.445312 Z M 114.875 38.707031 " clip-rule="nonzero"/></clipPath><clipPath id="b64069e43e"><path d="M 114.875 38.707031 L 254.371094 37.503906 L 256.996094 341.242188 L 117.5 342.445312 Z M 114.875 38.707031 " clip-rule="nonzero"/></clipPath><clipPath id="49e0365520"><path d="M 114.875 38.707031 L 254.371094 37.503906 L 256.996094 341.242188 L 117.5 342.445312 Z M 114.875 38.707031 " clip-rule="nonzero"/></clipPath><clipPath id="5e508a7f03"><path d="M 182 71 L 186 71 L 186 74 L 182 74 Z M 182 71 " clip-rule="nonzero"/></clipPath><clipPath id="f452ceaf67"><path d="M 114.875 38.707031 L 254.371094 37.503906 L 256.996094 341.242188 L 117.5 342.445312 Z M 114.875 38.707031 " clip-rule="nonzero"/></clipPath><clipPath id="f254534c2b"><path d="M 114.875 38.707031 L 254.371094 37.503906 L 256.996094 341.242188 L 117.5 342.445312 Z M 114.875 38.707031 " clip-rule="nonzero"/></clipPath><clipPath id="2f9b99b228"><path d="M 114.875 38.707031 L 254.371094 37.503906 L 256.996094 341.242188 L 117.5 342.445312 Z M 114.875 38.707031 " clip-rule="nonzero"/></clipPath><clipPath id="54f59907ee"><path d="M 169 73 L 172 73 L 172 75 L 169 75 Z M 169 73 " clip-rule="nonzero"/></clipPath><clipPath id="19a4c8a857"><path d="M 114.875 38.707031 L 254.371094 37.503906 L 256.996094 341.242188 L 117.5 342.445312 Z M 114.875 38.707031 " clip-rule="nonzero"/></clipPath><clipPath id="536432f8ad"><path d="M 114.875 38.707031 L 254.371094 37.503906 L 256.996094 341.242188 L 117.5 342.445312 Z M 114.875 38.707031 " clip-rule="nonzero"/></clipPath><clipPath id="2130192dc1"><path d="M 114.875 38.707031 L 254.371094 37.503906 L 256.996094 341.242188 L 117.5 342.445312 Z M 114.875 38.707031 " clip-rule="nonzero"/></clipPath><clipPath id="a1256ed338"><path d="M 172 74 L 174 74 L 174 75 L 172 75 Z M 172 74 " clip-rule="nonzero"/></clipPath><clipPath id="c543b605cf"><path d="M 114.875 38.707031 L 254.371094 37.503906 L 256.996094 341.242188 L 117.5 342.445312 Z M 114.875 38.707031 " clip-rule="nonzero"/></clipPath><clipPath id="d3ebdcbee9"><path d="M 114.875 38.707031 L 254.371094 37.503906 L 256.996094 341.242188 L 117.5 342.445312 Z M 114.875 38.707031 " clip-rule="nonzero"/></clipPath><clipPath id="0513e3fe18"><path d="M 114.875 38.707031 L 254.371094 37.503906 L 256.996094 341.242188 L 117.5 342.445312 Z M 114.875 38.707031 " clip-rule="nonzero"/></clipPath><clipPath id="e2c229a996"><path d="M 135 143 L 225 143 L 225 160 L 135 160 Z M 135 143 " clip-rule="nonzero"/></clipPath><clipPath id="74d080dc7b"><path d="M 114.875 38.707031 L 254.371094 37.503906 L 256.996094 341.242188 L 117.5 342.445312 Z M 114.875 38.707031 " clip-rule="nonzero"/></clipPath><clipPath id="da4137d5b3"><path d="M 114.875 38.707031 L 254.371094 37.503906 L 256.996094 341.242188 L 117.5 342.445312 Z M 114.875 38.707031 " clip-rule="nonzero"/></clipPath><clipPath id="a8c62a638e"><path d="M 114.875 38.707031 L 254.371094 37.503906 L 256.996094 341.242188 L 117.5 342.445312 Z M 114.875 38.707031 " clip-rule="nonzero"/></clipPath><clipPath id="b6f6042922"><path d="M 232 143 L 238 143 L 238 148 L 232 148 Z M 232 143 " clip-rule="nonzero"/></clipPath><clipPath id="545424ea9a"><path d="M 114.875 38.707031 L 254.371094 37.503906 L 256.996094 341.242188 L 117.5 342.445312 Z M 114.875 38.707031 " clip-rule="nonzero"/></clipPath><clipPath id="cddf848654"><path d="M 114.875 38.707031 L 254.371094 37.503906 L 256.996094 341.242188 L 117.5 342.445312 Z M 114.875 38.707031 " clip-rule="nonzero"/></clipPath><clipPath id="c271e847fd"><path d="M 114.875 38.707031 L 254.371094 37.503906 L 256.996094 341.242188 L 117.5 342.445312 Z M 114.875 38.707031 " clip-rule="nonzero"/></clipPath><clipPath id="bc9590d8d9"><path d="M 151 330 L 219 330 L 219 337 L 151 337 Z M 151 330 " clip-rule="nonzero"/></clipPath><clipPath id="e4283734bd"><path d="M 114.875 38.707031 L 254.371094 37.503906 L 256.996094 341.242188 L 117.5 342.445312 Z M 114.875 38.707031 " clip-rule="nonzero"/></clipPath><clipPath id="e166e17f12"><path d="M 114.875 38.707031 L 254.371094 37.503906 L 256.996094 341.242188 L 117.5 342.445312 Z M 114.875 38.707031 " clip-rule="nonzero"/></clipPath><clipPath id="fff7f567b8"><path d="M 114.875 38.707031 L 254.371094 37.503906 L 256.996094 341.242188 L 117.5 342.445312 Z M 114.875 38.707031 " clip-rule="nonzero"/></clipPath><clipPath id="4af14fc58c"><path d="M 120 132 L 129 132 L 129 154 L 120 154 Z M 120 132 " clip-rule="nonzero"/></clipPath><clipPath id="e01f6583ca"><path d="M 114.875 38.707031 L 254.371094 37.503906 L 256.996094 341.242188 L 117.5 342.445312 Z M 114.875 38.707031 " clip-rule="nonzero"/></clipPath><clipPath id="e9eac1ff29"><path d="M 114.875 38.707031 L 254.371094 37.503906 L 256.996094 341.242188 L 117.5 342.445312 Z M 114.875 38.707031 " clip-rule="nonzero"/></clipPath><clipPath id="5ad4466e09"><path d="M 114.875 38.707031 L 254.371094 37.503906 L 256.996094 341.242188 L 117.5 342.445312 Z M 114.875 38.707031 " clip-rule="nonzero"/></clipPath><clipPath id="1b208b851b"><path d="M 121 162 L 124 162 L 124 169 L 121 169 Z M 121 162 " clip-rule="nonzero"/></clipPath><clipPath id="8132f25d6f"><path d="M 114.875 38.707031 L 254.371094 37.503906 L 256.996094 341.242188 L 117.5 342.445312 Z M 114.875 38.707031 " clip-rule="nonzero"/></clipPath><clipPath id="09235d66b0"><path d="M 114.875 38.707031 L 254.371094 37.503906 L 256.996094 341.242188 L 117.5 342.445312 Z M 114.875 38.707031 " clip-rule="nonzero"/></clipPath><clipPath id="28b914976a"><path d="M 114.875 38.707031 L 254.371094 37.503906 L 256.996094 341.242188 L 117.5 342.445312 Z M 114.875 38.707031 " clip-rule="nonzero"/></clipPath><clipPath id="f021b3b819"><path d="M 206 109 L 219 109 L 219 134 L 206 134 Z M 206 109 " clip-rule="nonzero"/></clipPath><clipPath id="41b0fd6df3"><path d="M 114.875 38.707031 L 254.371094 37.503906 L 256.996094 341.242188 L 117.5 342.445312 Z M 114.875 38.707031 " clip-rule="nonzero"/></clipPath><clipPath id="04a5cd6360"><path d="M 114.875 38.707031 L 254.371094 37.503906 L 256.996094 341.242188 L 117.5 342.445312 Z M 114.875 38.707031 " clip-rule="nonzero"/></clipPath><clipPath id="2ab1e2ad59"><path d="M 114.875 38.707031 L 254.371094 37.503906 L 256.996094 341.242188 L 117.5 342.445312 Z M 114.875 38.707031 " clip-rule="nonzero"/></clipPath><clipPath id="3c03368061"><path d="M 221 199 L 228 199 L 228 301 L 221 301 Z M 221 199 " clip-rule="nonzero"/></clipPath><clipPath id="d2264a3c04"><path d="M 114.875 38.707031 L 254.371094 37.503906 L 256.996094 341.242188 L 117.5 342.445312 Z M 114.875 38.707031 " clip-rule="nonzero"/></clipPath><clipPath id="885e3f5e99"><path d="M 114.875 38.707031 L 254.371094 37.503906 L 256.996094 341.242188 L 117.5 342.445312 Z M 114.875 38.707031 " clip-rule="nonzero"/></clipPath><clipPath id="84a356d4c7"><path d="M 114.875 38.707031 L 254.371094 37.503906 L 256.996094 341.242188 L 117.5 342.445312 Z M 114.875 38.707031 " clip-rule="nonzero"/></clipPath><clipPath id="4005de73b5"><path d="M 149 240 L 158 240 L 158 249 L 149 249 Z M 149 240 " clip-rule="nonzero"/></clipPath><clipPath id="3c7f614b70"><path d="M 114.875 38.707031 L 254.371094 37.503906 L 256.996094 341.242188 L 117.5 342.445312 Z M 114.875 38.707031 " clip-rule="nonzero"/></clipPath><clipPath id="994b2b0482"><path d="M 114.875 38.707031 L 254.371094 37.503906 L 256.996094 341.242188 L 117.5 342.445312 Z M 114.875 38.707031 " clip-rule="nonzero"/></clipPath><clipPath id="ba7ea3e116"><path d="M 114.875 38.707031 L 254.371094 37.503906 L 256.996094 341.242188 L 117.5 342.445312 Z M 114.875 38.707031 " clip-rule="nonzero"/></clipPath><clipPath id="ccfb357a68"><path d="M 188 213 L 193 213 L 193 218 L 188 218 Z M 188 213 " clip-rule="nonzero"/></clipPath><clipPath id="3b46127f95"><path d="M 114.875 38.707031 L 254.371094 37.503906 L 256.996094 341.242188 L 117.5 342.445312 Z M 114.875 38.707031 " clip-rule="nonzero"/></clipPath><clipPath id="33dd898a75"><path d="M 114.875 38.707031 L 254.371094 37.503906 L 256.996094 341.242188 L 117.5 342.445312 Z M 114.875 38.707031 " clip-rule="nonzero"/></clipPath><clipPath id="c855a0209b"><path d="M 114.875 38.707031 L 254.371094 37.503906 L 256.996094 341.242188 L 117.5 342.445312 Z M 114.875 38.707031 " clip-rule="nonzero"/></clipPath><clipPath id="1a653bce25"><path d="M 204 227 L 212 227 L 212 236 L 204 236 Z M 204 227 " clip-rule="nonzero"/></clipPath><clipPath id="d14c297be3"><path d="M 114.875 38.707031 L 254.371094 37.503906 L 256.996094 341.242188 L 117.5 342.445312 Z M 114.875 38.707031 " clip-rule="nonzero"/></clipPath><clipPath id="0242e069b5"><path d="M 114.875 38.707031 L 254.371094 37.503906 L 256.996094 341.242188 L 117.5 342.445312 Z M 114.875 38.707031 " clip-rule="nonzero"/></clipPath><clipPath id="4baa235c8f"><path d="M 114.875 38.707031 L 254.371094 37.503906 L 256.996094 341.242188 L 117.5 342.445312 Z M 114.875 38.707031 " clip-rule="nonzero"/></clipPath><clipPath id="67cf043cf8"><path d="M 153 261 L 162 261 L 162 268 L 153 268 Z M 153 261 " clip-rule="nonzero"/></clipPath><clipPath id="7cad1651f3"><path d="M 114.875 38.707031 L 254.371094 37.503906 L 256.996094 341.242188 L 117.5 342.445312 Z M 114.875 38.707031 " clip-rule="nonzero"/></clipPath><clipPath id="920451deb7"><path d="M 114.875 38.707031 L 254.371094 37.503906 L 256.996094 341.242188 L 117.5 342.445312 Z M 114.875 38.707031 " clip-rule="nonzero"/></clipPath><clipPath id="07f7312dca"><path d="M 114.875 38.707031 L 254.371094 37.503906 L 256.996094 341.242188 L 117.5 342.445312 Z M 114.875 38.707031 " clip-rule="nonzero"/></clipPath><clipPath id="d8783f67bc"><path d="M 168 90 L 171 90 L 171 94 L 168 94 Z M 168 90 " clip-rule="nonzero"/></clipPath><clipPath id="9427643999"><path d="M 114.875 38.707031 L 254.371094 37.503906 L 256.996094 341.242188 L 117.5 342.445312 Z M 114.875 38.707031 " clip-rule="nonzero"/></clipPath><clipPath id="d243bfcb6f"><path d="M 114.875 38.707031 L 254.371094 37.503906 L 256.996094 341.242188 L 117.5 342.445312 Z M 114.875 38.707031 " clip-rule="nonzero"/></clipPath><clipPath id="f3e952e37f"><path d="M 114.875 38.707031 L 254.371094 37.503906 L 256.996094 341.242188 L 117.5 342.445312 Z M 114.875 38.707031 " clip-rule="nonzero"/></clipPath><clipPath id="bd2b49087f"><path d="M 174 94 L 178 94 L 178 99 L 174 99 Z M 174 94 " clip-rule="nonzero"/></clipPath><clipPath id="6d26eb3755"><path d="M 114.875 38.707031 L 254.371094 37.503906 L 256.996094 341.242188 L 117.5 342.445312 Z M 114.875 38.707031 " clip-rule="nonzero"/></clipPath><clipPath id="a308255067"><path d="M 114.875 38.707031 L 254.371094 37.503906 L 256.996094 341.242188 L 117.5 342.445312 Z M 114.875 38.707031 " clip-rule="nonzero"/></clipPath><clipPath id="2b110c395f"><path d="M 114.875 38.707031 L 254.371094 37.503906 L 256.996094 341.242188 L 117.5 342.445312 Z M 114.875 38.707031 " clip-rule="nonzero"/></clipPath><clipPath id="9a0ac09281"><path d="M 206 89 L 209 89 L 209 92 L 206 92 Z M 206 89 " clip-rule="nonzero"/></clipPath><clipPath id="d53d92c7cd"><path d="M 114.875 38.707031 L 254.371094 37.503906 L 256.996094 341.242188 L 117.5 342.445312 Z M 114.875 38.707031 " clip-rule="nonzero"/></clipPath><clipPath id="65527c198f"><path d="M 114.875 38.707031 L 254.371094 37.503906 L 256.996094 341.242188 L 117.5 342.445312 Z M 114.875 38.707031 " clip-rule="nonzero"/></clipPath><clipPath id="f696c980a1"><path d="M 114.875 38.707031 L 254.371094 37.503906 L 256.996094 341.242188 L 117.5 342.445312 Z M 114.875 38.707031 " clip-rule="nonzero"/></clipPath><clipPath id="604bea8f68"><path d="M 159 147 L 162 147 L 162 150 L 159 150 Z M 159 147 " clip-rule="nonzero"/></clipPath><clipPath id="15464a56f7"><path d="M 114.875 38.707031 L 254.371094 37.503906 L 256.996094 341.242188 L 117.5 342.445312 Z M 114.875 38.707031 " clip-rule="nonzero"/></clipPath><clipPath id="7b8905a3b8"><path d="M 114.875 38.707031 L 254.371094 37.503906 L 256.996094 341.242188 L 117.5 342.445312 Z M 114.875 38.707031 " clip-rule="nonzero"/></clipPath><clipPath id="5f5b7f54b0"><path d="M 114.875 38.707031 L 254.371094 37.503906 L 256.996094 341.242188 L 117.5 342.445312 Z M 114.875 38.707031 " clip-rule="nonzero"/></clipPath><clipPath id="028f61b2e6"><path d="M 208 221 L 211 221 L 211 224 L 208 224 Z M 208 221 " clip-rule="nonzero"/></clipPath><clipPath id="f6cf0ad8f9"><path d="M 114.875 38.707031 L 254.371094 37.503906 L 256.996094 341.242188 L 117.5 342.445312 Z M 114.875 38.707031 " clip-rule="nonzero"/></clipPath><clipPath id="e25585def4"><path d="M 114.875 38.707031 L 254.371094 37.503906 L 256.996094 341.242188 L 117.5 342.445312 Z M 114.875 38.707031 " clip-rule="nonzero"/></clipPath><clipPath id="d1cea859c3"><path d="M 114.875 38.707031 L 254.371094 37.503906 L 256.996094 341.242188 L 117.5 342.445312 Z M 114.875 38.707031 " clip-rule="nonzero"/></clipPath><clipPath id="9847b50192"><path d="M 160 229 L 164 229 L 164 234 L 160 234 Z M 160 229 " clip-rule="nonzero"/></clipPath><clipPath id="8ca8304fa4"><path d="M 114.875 38.707031 L 254.371094 37.503906 L 256.996094 341.242188 L 117.5 342.445312 Z M 114.875 38.707031 " clip-rule="nonzero"/></clipPath><clipPath id="5eec7ad7fc"><path d="M 114.875 38.707031 L 254.371094 37.503906 L 256.996094 341.242188 L 117.5 342.445312 Z M 114.875 38.707031 " clip-rule="nonzero"/></clipPath><clipPath id="0f8149a99e"><path d="M 114.875 38.707031 L 254.371094 37.503906 L 256.996094 341.242188 L 117.5 342.445312 Z M 114.875 38.707031 " clip-rule="nonzero"/></clipPath><clipPath id="181af49bba"><path d="M 201 286 L 206 286 L 206 290 L 201 290 Z M 201 286 " clip-rule="nonzero"/></clipPath><clipPath id="a612c7c357"><path d="M 114.875 38.707031 L 254.371094 37.503906 L 256.996094 341.242188 L 117.5 342.445312 Z M 114.875 38.707031 " clip-rule="nonzero"/></clipPath><clipPath id="0f9c661cda"><path d="M 114.875 38.707031 L 254.371094 37.503906 L 256.996094 341.242188 L 117.5 342.445312 Z M 114.875 38.707031 " clip-rule="nonzero"/></clipPath><clipPath id="896e3b933e"><path d="M 114.875 38.707031 L 254.371094 37.503906 L 256.996094 341.242188 L 117.5 342.445312 Z M 114.875 38.707031 " clip-rule="nonzero"/></clipPath><clipPath id="fd1b2a1e9b"><path d="M 151 45 L 222 45 L 222 62 L 151 62 Z M 151 45 " clip-rule="nonzero"/></clipPath><clipPath id="ae6605589f"><path d="M 114.875 38.707031 L 254.371094 37.503906 L 256.996094 341.242188 L 117.5 342.445312 Z M 114.875 38.707031 " clip-rule="nonzero"/></clipPath><clipPath id="c73dab0efd"><path d="M 114.875 38.707031 L 254.371094 37.503906 L 256.996094 341.242188 L 117.5 342.445312 Z M 114.875 38.707031 " clip-rule="nonzero"/></clipPath><clipPath id="1a651c44f2"><path d="M 114.875 38.707031 L 254.371094 37.503906 L 256.996094 341.242188 L 117.5 342.445312 Z M 114.875 38.707031 " clip-rule="nonzero"/></clipPath><clipPath id="ca2e39bdbe"><path d="M 142 49 L 150 49 L 150 60 L 142 60 Z M 142 49 " clip-rule="nonzero"/></clipPath><clipPath id="4e01fe950f"><path d="M 114.875 38.707031 L 254.371094 37.503906 L 256.996094 341.242188 L 117.5 342.445312 Z M 114.875 38.707031 " clip-rule="nonzero"/></clipPath><clipPath id="1b12918474"><path d="M 114.875 38.707031 L 254.371094 37.503906 L 256.996094 341.242188 L 117.5 342.445312 Z M 114.875 38.707031 " clip-rule="nonzero"/></clipPath><clipPath id="a42d42efc6"><path d="M 114.875 38.707031 L 254.371094 37.503906 L 256.996094 341.242188 L 117.5 342.445312 Z M 114.875 38.707031 " clip-rule="nonzero"/></clipPath><clipPath id="90b06a396a"><path d="M 214 59 L 225 59 L 225 66 L 214 66 Z M 214 59 " clip-rule="nonzero"/></clipPath><clipPath id="4690f73f28"><path d="M 114.875 38.707031 L 254.371094 37.503906 L 256.996094 341.242188 L 117.5 342.445312 Z M 114.875 38.707031 " clip-rule="nonzero"/></clipPath><clipPath id="36d73b9558"><path d="M 114.875 38.707031 L 254.371094 37.503906 L 256.996094 341.242188 L 117.5 342.445312 Z M 114.875 38.707031 " clip-rule="nonzero"/></clipPath><clipPath id="5285df812d"><path d="M 114.875 38.707031 L 254.371094 37.503906 L 256.996094 341.242188 L 117.5 342.445312 Z M 114.875 38.707031 " clip-rule="nonzero"/></clipPath></defs><g clip-path="url(#e11dc8857c)"><g clip-path="url(#7c29d1d8ad)"><g clip-path="url(#16987f31f4)"><g clip-path="url(#0d6c3fb502)"><path fill="#f7ece4" d="M 187.210938 338.132812 C 205.128906 336.753906 230.902344 341.4375 246.285156 326.75 C 251.476562 320.78125 254.820312 312.597656 253.996094 302.34375 C 252.488281 283.636719 251.796875 265.738281 251.136719 248.605469 C 249.554688 196.144531 255.378906 155.636719 252.714844 142.59375 C 250.050781 129.550781 237.855469 122.753906 232.054688 112.992188 C 226.257812 103.230469 230.40625 65.144531 229.90625 58.28125 C 229.148438 55.472656 227.910156 49.910156 222.773438 46.558594 C 217.636719 43.207031 204.738281 37.992188 184.617188 38.167969 C 164.5 38.339844 151.691406 43.777344 146.613281 47.21875 C 141.535156 50.65625 140.394531 56.242188 139.683594 59.0625 C 139.304688 65.933594 144.109375 103.9375 138.480469 113.800781 C 132.851562 123.664062 120.777344 130.667969 118.335938 143.753906 C 115.898438 156.839844 122.421875 197.242188 121.746094 249.722656 C 121.382812 266.863281 121 284.773438 119.816406 303.503906 C 119.167969 313.769531 122.65625 321.898438 127.949219 327.773438 C 143.585938 342.191406 169.277344 337.066406 187.210938 338.132812 Z M 187.210938 338.132812 " fill-opacity="0.2" fill-rule="nonzero"/></g></g></g></g><g clip-path="url(#60d3ad62b8)"><g clip-path="url(#c83a045220)"><g clip-path="url(#63e70c8f07)"><g clip-path="url(#ec78bad678)"><path fill="#feab41" d="M 187.128906 328.300781 C 184.832031 328.179688 182.257812 328.136719 179.097656 328.164062 C 177.15625 328.183594 175.164062 328.222656 173.136719 328.265625 C 171.121094 328.304688 169.070312 328.347656 167.003906 328.367188 C 152.984375 328.488281 142.140625 327.246094 134.925781 320.859375 C 130.976562 316.300781 129.183594 310.671875 129.597656 304.125 C 130.792969 285.183594 131.175781 267.261719 131.542969 249.933594 L 131.546875 249.851562 C 131.910156 221.605469 130.1875 196.398438 128.933594 177.992188 C 127.921875 163.226562 127.054688 150.472656 127.96875 145.558594 C 128.984375 140.113281 132.949219 135.773438 137.542969 130.746094 C 140.886719 127.085938 144.34375 123.304688 146.988281 118.671875 C 152.15625 109.617188 151.574219 111.558594 150.148438 89.996094 C 149.917969 86.550781 149.664062 82.710938 149.636719 80.886719 C 150.214844 78.636719 152.832031 76.617188 154.277344 75.636719 C 158.214844 72.972656 167.511719 68.65625 184.882812 68.503906 C 202.253906 68.355469 213.578125 73.71875 217.558594 76.316406 C 219.019531 77.269531 219.71875 78.035156 220.332031 80.277344 C 220.335938 82.101562 220.152344 85.945312 219.980469 89.394531 C 218.929688 110.976562 218.3125 109.042969 223.636719 118.007812 C 226.359375 122.59375 229.882812 126.316406 233.289062 129.917969 C 237.96875 134.863281 242.007812 139.132812 243.117188 144.558594 C 244.117188 149.460938 243.46875 162.222656 242.714844 177.007812 C 241.777344 195.429688 240.492188 220.664062 241.34375 248.902344 L 241.347656 248.984375 C 242.015625 266.316406 242.707031 284.226562 244.230469 303.128906 C 244.757812 309.675781 243.0625 315.332031 239.195312 319.957031 C 232.089844 326.46875 221.269531 327.894531 207.246094 328.019531 C 205.179688 328.035156 203.128906 328.027344 201.113281 328.019531 C 199.085938 328.015625 197.09375 328.007812 195.152344 328.027344 C 191.992188 328.054688 189.417969 328.140625 187.128906 328.300781 Z M 187.128906 328.300781 " fill-opacity="1" fill-rule="nonzero"/></g></g></g></g><g clip-path="url(#4eaec4219e)"><g clip-path="url(#5820c11bc7)"><g clip-path="url(#c7705eabd9)"><g clip-path="url(#6b18c56334)"><path fill="#f68e5d" d="M 241.71875 258.472656 C 238.179688 258.859375 234.65625 259.027344 231.207031 257.703125 C 225.925781 255.683594 224.800781 250.730469 221.90625 246.460938 C 220.003906 243.652344 217.164062 242.082031 213.761719 241.863281 C 211.164062 241.699219 208.5625 242.453125 205.984375 242.191406 C 201.992188 241.785156 198.902344 238.738281 196.820312 235.484375 C 194.59375 232.003906 193.222656 227.164062 189.351562 225.097656 C 183.828125 222.152344 177.085938 224.652344 172.613281 228.433594 C 170.410156 230.296875 168.109375 232.527344 166.855469 235.167969 C 165.671875 237.671875 165.257812 240.316406 164.75 243.011719 C 164.0625 246.675781 162.605469 252.191406 158.984375 254.113281 C 155.996094 255.699219 152.273438 254.558594 149.375 256.542969 C 146.675781 258.390625 145.542969 264.453125 141.335938 264.011719 C 138.726562 263.738281 136.847656 262.554688 134.191406 263.605469 C 132.898438 264.113281 131.882812 264.726562 131.183594 265.574219 C 130.871094 278.023438 130.433594 290.816406 129.597656 304.121094 C 129.183594 310.671875 130.972656 316.300781 134.921875 320.859375 C 142.136719 327.246094 152.980469 328.488281 167.003906 328.367188 C 169.070312 328.347656 171.117188 328.304688 173.132812 328.265625 C 175.160156 328.222656 177.152344 328.183594 179.09375 328.164062 C 182.257812 328.136719 184.832031 328.179688 187.125 328.296875 C 189.417969 328.140625 191.988281 328.054688 195.152344 328.027344 C 197.09375 328.007812 199.085938 328.015625 201.113281 328.023438 C 203.128906 328.027344 205.175781 328.035156 207.246094 328.019531 C 221.265625 327.898438 232.089844 326.46875 239.191406 319.957031 C 243.0625 315.332031 244.753906 309.675781 244.230469 303.132812 C 242.984375 287.652344 242.296875 272.847656 241.71875 258.472656 Z M 241.71875 258.472656 " fill-opacity="1" fill-rule="nonzero"/></g></g></g></g><g clip-path="url(#ca524c8611)"><g clip-path="url(#9c0c362687)"><g clip-path="url(#db37568801)"><g clip-path="url(#d89e698c66)"><path fill="#f7ece4" d="M 219.269531 77.664062 C 218.695312 74.398438 217.601562 73.863281 214.328125 72.800781 C 209.960938 71.203125 205.597656 70.152344 200.695312 69.648438 C 195.792969 69.144531 190.339844 68.101562 184.890625 67.601562 C 177.8125 67.117188 171.839844 68.804688 164.785156 71.046875 C 160.96875 72.261719 155.949219 72.339844 152.542969 74.484375 C 151.566406 75.097656 150.699219 76.074219 150.175781 77.1875 C 149.769531 78.054688 149.574219 79.003906 149.703125 79.929688 C 150.121094 83.023438 153.625 83.714844 156.1875 84.207031 C 161.097656 85.800781 166.007812 86.847656 171.449219 86.800781 C 181.246094 86.714844 192.695312 88.796875 202.472656 86.53125 C 204.644531 85.96875 206.8125 84.859375 209.527344 84.289062 C 211.707031 84.273438 214.429688 84.792969 217.136719 83.132812 C 219.308594 82.027344 219.84375 80.929688 219.269531 77.664062 Z M 214.339844 79.886719 C 209.753906 83.453125 203.246094 81.269531 198.011719 82.527344 C 195.683594 83.085938 193.101562 84.253906 190.65625 83.855469 C 187.785156 83.386719 185.621094 81.761719 182.597656 82.699219 C 180.433594 83.375 178.25 84.074219 176.023438 83.183594 C 174.359375 82.519531 172.742188 81.488281 170.886719 81.640625 C 168.273438 81.847656 165.6875 82.292969 163.074219 82.472656 C 161.140625 82.609375 159.164062 82.746094 157.246094 82.421875 C 155.867188 82.1875 152.820312 81.296875 152.394531 79.660156 C 152.175781 78.816406 152.75 78.078125 153.378906 77.597656 C 155.101562 76.285156 157.65625 75.746094 159.730469 75.332031 C 160.710938 75.136719 161.691406 74.964844 162.667969 74.761719 C 165.398438 74.195312 167.9375 72.527344 170.773438 72.59375 C 172.046875 72.625 173.234375 73.210938 174.460938 73.464844 C 176.578125 73.902344 178.128906 73.179688 179.941406 72.207031 C 182.085938 71.0625 184.136719 70.496094 186.523438 71.308594 C 187.933594 71.785156 189.605469 72.722656 191.125 72.660156 C 192.730469 72.59375 194.300781 72.167969 195.902344 72.113281 C 198.746094 72.019531 201.035156 73.402344 203.722656 74.042969 C 206.179688 74.628906 208.527344 74.101562 211 74.3125 C 212.914062 74.476562 214.414062 75.019531 215.328125 76.824219 C 215.875 77.910156 215.210938 79.210938 214.339844 79.886719 Z M 214.339844 79.886719 " fill-opacity="1" fill-rule="nonzero"/></g></g></g></g><g clip-path="url(#422939f1f6)"><g clip-path="url(#6569b195fe)"><g clip-path="url(#b64069e43e)"><g clip-path="url(#49e0365520)"><path fill="#f7ece4" d="M 150.585938 73.378906 C 150.53125 73.378906 150.53125 73.460938 150.585938 73.460938 C 150.636719 73.460938 150.636719 73.378906 150.585938 73.378906 Z M 150.585938 73.378906 " fill-opacity="1" fill-rule="nonzero"/></g></g></g></g><g clip-path="url(#5e508a7f03)"><g clip-path="url(#f452ceaf67)"><g clip-path="url(#f254534c2b)"><g clip-path="url(#2f9b99b228)"><path fill="#f7ece4" d="M 185.390625 72.226562 C 184.964844 71.726562 183.824219 71.816406 183.269531 71.957031 C 182.976562 72.03125 182.53125 72.214844 182.480469 72.5625 C 182.417969 72.972656 183.082031 73.402344 183.421875 73.476562 C 183.746094 73.546875 184.101562 73.527344 184.429688 73.488281 C 184.769531 73.449219 185.089844 73.363281 185.355469 73.140625 C 185.628906 72.910156 185.605469 72.476562 185.390625 72.226562 Z M 185.390625 72.226562 " fill-opacity="1" fill-rule="nonzero"/></g></g></g></g><g clip-path="url(#54f59907ee)"><g clip-path="url(#19a4c8a857)"><g clip-path="url(#536432f8ad)"><g clip-path="url(#2130192dc1)"><path fill="#f7ece4" d="M 171.238281 73.714844 C 171.027344 73.359375 170.621094 73.21875 170.222656 73.242188 C 169.949219 73.257812 169.351562 73.515625 169.445312 73.878906 C 169.5 74.082031 169.808594 74.210938 169.976562 74.285156 C 170.242188 74.398438 171.558594 74.253906 171.238281 73.714844 Z M 171.238281 73.714844 " fill-opacity="1" fill-rule="nonzero"/></g></g></g></g><g clip-path="url(#a1256ed338)"><g clip-path="url(#c543b605cf)"><g clip-path="url(#d3ebdcbee9)"><g clip-path="url(#0513e3fe18)"><path fill="#f7ece4" d="M 173.949219 74.585938 C 173.820312 74.367188 173.570312 74.28125 173.328125 74.296875 C 173.160156 74.304688 172.792969 74.464844 172.851562 74.6875 C 172.882812 74.8125 173.074219 74.890625 173.179688 74.9375 C 173.339844 75.007812 174.148438 74.917969 173.949219 74.585938 Z M 173.949219 74.585938 " fill-opacity="1" fill-rule="nonzero"/></g></g></g></g><g clip-path="url(#e2c229a996)"><g clip-path="url(#74d080dc7b)"><g clip-path="url(#da4137d5b3)"><g clip-path="url(#a8c62a638e)"><path fill="#f7ece4" d="M 136.066406 144.644531 C 141.667969 155.917969 158.085938 157.457031 169.042969 158.453125 C 176.988281 159.175781 185.023438 159.8125 193.003906 159.519531 C 203.375 159.144531 213.667969 155.96875 223.449219 152.734375 C 224.660156 152.332031 224.136719 150.441406 222.902344 150.816406 C 213.558594 153.664062 204.261719 156.628906 194.46875 157.4375 C 186.984375 158.058594 179.386719 157.261719 171.914062 156.753906 C 159.609375 155.921875 145.023438 154.757812 137.070312 144.046875 C 136.625 143.445312 135.726562 143.964844 136.066406 144.644531 Z M 136.066406 144.644531 " fill-opacity="1" fill-rule="nonzero"/></g></g></g></g><g clip-path="url(#b6f6042922)"><g clip-path="url(#545424ea9a)"><g clip-path="url(#cddf848654)"><g clip-path="url(#c271e847fd)"><path fill="#f7ece4" d="M 233.65625 147.417969 C 235.015625 146.898438 237.210938 146.347656 237.878906 144.917969 C 238.09375 144.460938 237.835938 143.828125 237.257812 143.859375 C 236.347656 143.902344 235.632812 144.519531 234.886719 144.992188 C 234.289062 145.375 233.730469 145.820312 233.136719 146.210938 C 232.539062 146.605469 232.925781 147.695312 233.65625 147.417969 Z M 233.65625 147.417969 " fill-opacity="1" fill-rule="nonzero"/></g></g></g></g><g clip-path="url(#bc9590d8d9)"><g clip-path="url(#e4283734bd)"><g clip-path="url(#e166e17f12)"><g clip-path="url(#fff7f567b8)"><path fill="#f7ece4" d="M 152.164062 335.171875 C 157.125 333.972656 162.351562 333.851562 167.417969 333.316406 C 172.960938 332.730469 178.457031 332.070312 184.039062 332.058594 C 195.359375 332.042969 206.75 333.570312 217.625 336.730469 C 218.898438 337.097656 219.433594 335.070312 218.152344 334.746094 C 207.410156 332.042969 196.660156 330.410156 185.570312 330.214844 C 179.460938 330.109375 173.453125 330.824219 167.402344 331.601562 C 162.222656 332.265625 156.921875 332.75 151.878906 334.171875 C 151.238281 334.355469 151.519531 335.328125 152.164062 335.171875 Z M 152.164062 335.171875 " fill-opacity="1" fill-rule="nonzero"/></g></g></g></g><g clip-path="url(#4af14fc58c)"><g clip-path="url(#e01f6583ca)"><g clip-path="url(#e9eac1ff29)"><g clip-path="url(#5ad4466e09)"><path fill="#f7ece4" d="M 127.695312 132.355469 C 122.765625 137.59375 120.207031 145.742188 121.105469 152.847656 C 121.175781 153.402344 121.890625 153.527344 122.085938 152.972656 C 123.597656 148.613281 122.46875 143.699219 124.601562 139.421875 C 125.722656 137.171875 127.304688 135.121094 128.285156 132.804688 C 128.441406 132.4375 128.007812 132.023438 127.695312 132.355469 Z M 127.695312 132.355469 " fill-opacity="1" fill-rule="nonzero"/></g></g></g></g><g clip-path="url(#1b208b851b)"><g clip-path="url(#8132f25d6f)"><g clip-path="url(#09235d66b0)"><g clip-path="url(#28b914976a)"><path fill="#f7ece4" d="M 121.601562 163.027344 C 121.382812 163.945312 121.367188 164.859375 121.492188 165.792969 C 121.605469 166.652344 121.75 167.722656 122.703125 168 C 122.917969 168.058594 123.09375 167.949219 123.21875 167.78125 C 123.726562 167.109375 123.332031 166.253906 123.222656 165.503906 C 123.105469 164.671875 123.082031 163.835938 122.871094 163.015625 C 122.710938 162.386719 121.75 162.390625 121.601562 163.027344 Z M 121.601562 163.027344 " fill-opacity="1" fill-rule="nonzero"/></g></g></g></g><g clip-path="url(#f021b3b819)"><g clip-path="url(#41b0fd6df3)"><g clip-path="url(#04a5cd6360)"><g clip-path="url(#2ab1e2ad59)"><path fill="#f7ece4" d="M 207.179688 109.582031 C 206.914062 113.308594 205.285156 119.023438 207.148438 122.550781 C 208.089844 124.332031 209.46875 125.472656 211.0625 126.667969 C 212.1875 127.507812 213.328125 128.300781 214.371094 129.246094 C 215.625 130.378906 215.953125 131.832031 217.292969 132.871094 C 217.894531 133.339844 218.714844 132.757812 218.351562 132.039062 C 216.40625 128.1875 213.585938 126.527344 210.347656 123.898438 C 206.617188 120.871094 208.546875 113.785156 208.367188 109.570312 C 208.332031 108.796875 207.230469 108.824219 207.179688 109.582031 Z M 207.179688 109.582031 " fill-opacity="1" fill-rule="nonzero"/></g></g></g></g><g clip-path="url(#3c03368061)"><g clip-path="url(#d2264a3c04)"><g clip-path="url(#885e3f5e99)"><g clip-path="url(#84a356d4c7)"><path fill="#f7ece4" d="M 221.5625 200.5 C 221.347656 211.238281 221.28125 221.933594 221.875 232.664062 C 222.359375 241.40625 221.605469 250.179688 222.390625 258.902344 C 223.0625 266.351562 224.28125 273.738281 224.980469 281.179688 C 225.503906 286.722656 226.609375 294.191406 223.707031 299.269531 C 223.230469 300.101562 224.4375 301.078125 225.066406 300.304688 C 228.292969 296.332031 227.835938 290.082031 227.601562 285.296875 C 227.21875 277.4375 225.875 269.636719 224.96875 261.828125 C 223.949219 253.042969 224.652344 244.289062 224.296875 235.476562 C 223.820312 223.816406 223.203125 212.15625 222.765625 200.492188 C 222.738281 199.710938 221.578125 199.722656 221.5625 200.5 Z M 221.5625 200.5 " fill-opacity="1" fill-rule="nonzero"/></g></g></g></g><g clip-path="url(#4005de73b5)"><g clip-path="url(#3c7f614b70)"><g clip-path="url(#994b2b0482)"><g clip-path="url(#ba7ea3e116)"><path fill="#f68e5d" d="M 153.472656 240.875 C 151.386719 240.894531 149.664062 242.648438 149.683594 244.738281 C 149.699219 246.824219 151.453125 248.550781 153.539062 248.53125 C 155.621094 248.515625 157.34375 246.757812 157.328125 244.671875 C 157.308594 242.585938 155.554688 240.855469 153.472656 240.875 Z M 153.472656 240.875 " fill-opacity="1" fill-rule="nonzero"/></g></g></g></g><g clip-path="url(#ccfb357a68)"><g clip-path="url(#3b46127f95)"><g clip-path="url(#33dd898a75)"><g clip-path="url(#c855a0209b)"><path fill="#f68e5d" d="M 189.652344 213.777344 C 189.414062 213.953125 189.207031 214.128906 188.996094 214.328125 C 188.359375 214.9375 188.371094 216.078125 189.019531 216.675781 C 189.230469 216.871094 189.441406 217.046875 189.679688 217.214844 C 190.949219 218.109375 192.667969 216.871094 192.65625 215.46875 C 192.644531 214.070312 190.902344 212.863281 189.652344 213.777344 Z M 189.652344 213.777344 " fill-opacity="1" fill-rule="nonzero"/></g></g></g></g><g clip-path="url(#1a653bce25)"><g clip-path="url(#d14c297be3)"><g clip-path="url(#0242e069b5)"><g clip-path="url(#4baa235c8f)"><path fill="#f68e5d" d="M 209.84375 228.199219 C 209.03125 227.8125 208.15625 227.742188 207.355469 228.222656 C 207.28125 228.265625 207.210938 228.316406 207.140625 228.371094 C 206.316406 228.539062 205.585938 229.03125 205.054688 229.804688 C 204.324219 230.863281 204.472656 232.3125 204.820312 233.472656 C 205.136719 234.523438 206.113281 235.296875 207.226562 235.273438 C 208.742188 235.242188 210.167969 234.433594 210.875 233.066406 C 211.664062 231.535156 211.632812 229.054688 209.84375 228.199219 Z M 209.84375 228.199219 " fill-opacity="1" fill-rule="nonzero"/></g></g></g></g><g clip-path="url(#67cf043cf8)"><g clip-path="url(#7cad1651f3)"><g clip-path="url(#920451deb7)"><g clip-path="url(#07f7312dca)"><path fill="#feab41" d="M 160.539062 262.742188 C 159.75 260.867188 156.664062 260.628906 155.214844 262.042969 C 148.726562 268.371094 164.042969 271.054688 160.539062 262.742188 Z M 160.539062 262.742188 " fill-opacity="1" fill-rule="nonzero"/></g></g></g></g><g clip-path="url(#d8783f67bc)"><g clip-path="url(#9427643999)"><g clip-path="url(#d243bfcb6f)"><g clip-path="url(#f3e952e37f)"><path fill="#f7ece4" d="M 170.671875 92.179688 C 170.332031 90.664062 168.578125 90.433594 168.238281 92.074219 C 167.820312 94.105469 171.15625 94.351562 170.671875 92.179688 Z M 170.671875 92.179688 " fill-opacity="1" fill-rule="nonzero"/></g></g></g></g><g clip-path="url(#bd2b49087f)"><g clip-path="url(#6d26eb3755)"><g clip-path="url(#a308255067)"><g clip-path="url(#2b110c395f)"><path fill="#f7ece4" d="M 177.035156 95.113281 C 176.050781 94.167969 173.898438 94.535156 174.429688 96.222656 C 174.75 97.238281 175.371094 98.5625 176.792969 97.875 C 178.214844 97.183594 177.683594 95.738281 177.035156 95.113281 Z M 177.035156 95.113281 " fill-opacity="1" fill-rule="nonzero"/></g></g></g></g><g clip-path="url(#9a0ac09281)"><g clip-path="url(#d53d92c7cd)"><g clip-path="url(#65527c198f)"><g clip-path="url(#f696c980a1)"><path fill="#f7ece4" d="M 207.367188 89.316406 C 205.765625 89.328125 205.785156 91.820312 207.390625 91.808594 C 208.992188 91.792969 208.972656 89.300781 207.367188 89.316406 Z M 207.367188 89.316406 " fill-opacity="1" fill-rule="nonzero"/></g></g></g></g><g clip-path="url(#604bea8f68)"><g clip-path="url(#15464a56f7)"><g clip-path="url(#7b8905a3b8)"><g clip-path="url(#5f5b7f54b0)"><path fill="#f7ece4" d="M 160.519531 147.410156 C 158.914062 147.425781 158.933594 149.917969 160.539062 149.902344 C 162.144531 149.886719 162.121094 147.398438 160.519531 147.410156 Z M 160.519531 147.410156 " fill-opacity="1" fill-rule="nonzero"/></g></g></g></g><g clip-path="url(#028f61b2e6)"><g clip-path="url(#f6cf0ad8f9)"><g clip-path="url(#e25585def4)"><g clip-path="url(#d1cea859c3)"><path fill="#f7ece4" d="M 209.457031 221.09375 C 207.851562 221.105469 207.871094 223.597656 209.476562 223.582031 C 211.078125 223.570312 211.058594 221.078125 209.457031 221.09375 Z M 209.457031 221.09375 " fill-opacity="1" fill-rule="nonzero"/></g></g></g></g><g clip-path="url(#9847b50192)"><g clip-path="url(#8ca8304fa4)"><g clip-path="url(#5eec7ad7fc)"><g clip-path="url(#0f8149a99e)"><path fill="#f7ece4" d="M 161.960938 229.898438 C 159.945312 229.914062 159.972656 233.042969 161.988281 233.027344 C 164 233.007812 163.972656 229.878906 161.960938 229.898438 Z M 161.960938 229.898438 " fill-opacity="1" fill-rule="nonzero"/></g></g></g></g><g clip-path="url(#181af49bba)"><g clip-path="url(#a612c7c357)"><g clip-path="url(#0f9c661cda)"><g clip-path="url(#896e3b933e)"><path fill="#f7ece4" d="M 203.496094 286.78125 C 201.480469 286.800781 201.507812 289.929688 203.523438 289.910156 C 205.535156 289.894531 205.507812 286.765625 203.496094 286.78125 Z M 203.496094 286.78125 " fill-opacity="1" fill-rule="nonzero"/></g></g></g></g><g clip-path="url(#fd1b2a1e9b)"><g clip-path="url(#ae6605589f)"><g clip-path="url(#c73dab0efd)"><g clip-path="url(#1a651c44f2)"><path fill="#f7ece4" d="M 182.351562 46.167969 C 181.574219 46.242188 180.800781 46.316406 180.027344 46.398438 C 172.230469 47.203125 161.933594 46.863281 155.058594 51.078125 C 153.4375 52.320312 151 53.976562 151.429688 56.425781 C 151.859375 58.875 155.128906 59.257812 157.582031 59.644531 C 161.667969 60.015625 165.351562 61.210938 169.433594 61.175781 C 177.191406 61.109375 184.945312 61.042969 192.699219 60.976562 C 197.191406 60.9375 201.671875 60.082031 206.570312 60.039062 C 209.753906 60.011719 213.566406 61.179688 216.664062 60.105469 C 220.121094 58.90625 223.261719 53.824219 219.148438 50.933594 C 215.863281 48.507812 211.363281 47.730469 207.683594 46.945312 C 199.363281 45.167969 190.777344 45.386719 182.351562 46.167969 Z M 182.351562 46.167969 " fill-opacity="1" fill-rule="nonzero"/></g></g></g></g><g clip-path="url(#ca2e39bdbe)"><g clip-path="url(#4e01fe950f)"><g clip-path="url(#1b12918474)"><g clip-path="url(#a42d42efc6)"><path fill="#f7ece4" d="M 148.800781 49.472656 C 146.390625 50.339844 144.527344 52.515625 143.402344 54.777344 C 142.9375 55.710938 142.613281 56.910156 143.082031 57.90625 C 143.492188 58.777344 144.699219 59.683594 145.632812 59.035156 C 145.847656 58.882812 145.980469 58.628906 145.898438 58.359375 C 145.707031 57.738281 144.988281 57.546875 144.90625 56.902344 C 144.804688 56.09375 145.378906 55.222656 145.773438 54.570312 C 146.679688 53.058594 148.023438 51.492188 149.246094 50.222656 C 149.542969 49.910156 149.242188 49.316406 148.800781 49.472656 Z M 148.800781 49.472656 " fill-opacity="1" fill-rule="nonzero"/></g></g></g></g><g clip-path="url(#90b06a396a)"><g clip-path="url(#4690f73f28)"><g clip-path="url(#36d73b9558)"><g clip-path="url(#5285df812d)"><path fill="#f7ece4" d="M 215.195312 65.882812 C 217.332031 66.109375 219.222656 65.777344 221.054688 64.617188 C 222.890625 63.453125 223.574219 61.890625 224.308594 59.933594 C 224.378906 59.742188 224.113281 59.628906 223.988281 59.75 C 222.796875 60.871094 221.460938 62.117188 220.136719 63.078125 C 218.699219 64.125 216.746094 64.429688 215.023438 64.695312 C 214.296875 64.8125 214.582031 65.816406 215.195312 65.882812 Z M 215.195312 65.882812 " fill-opacity="1" fill-rule="nonzero"/></g></g></g></g></svg>